<svg xmlns="http://www.w3.org/2000/svg" xmlns:xlink="http://www.w3.org/1999/xlink" width="1280" zoomAndPan="magnify" viewBox="0 0 960 431.999984" height="576" preserveAspectRatio="xMidYMid meet" version="1.0"><defs><clipPath id="ca38ef0c3a"><path d="M 82.246094 129.601562 L 122 129.601562 L 122 302.101562 L 82.246094 302.101562 Z M 82.246094 129.601562 " clip-rule="nonzero"/></clipPath><clipPath id="f25c945c38"><path d="M 113 153 L 130 153 L 130 176 L 113 176 Z M 113 153 " clip-rule="nonzero"/></clipPath><clipPath id="444b367d94"><path d="M 129.019531 171.019531 C 129.019531 171.019531 129.347656 168.683594 118.023438 162.355469 L 113.613281 161.65625 L 119.820312 141.972656 L 120.59375 131.703125 C 120.59375 131.703125 131.121094 128.875 136.773438 132.050781 L 147.699219 146.785156 C 147.699219 146.785156 141.976562 155.46875 142.117188 157.125 C 142.257812 158.785156 139.410156 160.839844 139.246094 162.007812 C 139.082031 163.171875 138.195312 175.289062 138.195312 175.289062 Z M 129.019531 171.019531 " clip-rule="nonzero"/></clipPath><clipPath id="46c02f9e78"><path d="M 128 150 L 147.699219 150 L 147.699219 176 L 128 176 Z M 128 150 " clip-rule="nonzero"/></clipPath><clipPath id="138057ef9d"><path d="M 129.019531 171.019531 C 129.019531 171.019531 129.347656 168.683594 118.023438 162.355469 L 113.613281 161.65625 L 119.820312 141.972656 L 120.59375 131.703125 C 120.59375 131.703125 131.121094 128.875 136.773438 132.050781 L 147.699219 146.785156 C 147.699219 146.785156 141.976562 155.46875 142.117188 157.125 C 142.257812 158.785156 139.410156 160.839844 139.246094 162.007812 C 139.082031 163.171875 138.195312 175.289062 138.195312 175.289062 Z M 129.019531 171.019531 " clip-rule="nonzero"/></clipPath><clipPath id="3ba89cdb51"><path d="M 127 141 L 147.699219 141 L 147.699219 152 L 127 152 Z M 127 141 " clip-rule="nonzero"/></clipPath><clipPath id="2bd6a695ca"><path d="M 129.019531 171.019531 C 129.019531 171.019531 129.347656 168.683594 118.023438 162.355469 L 113.613281 161.65625 L 119.820312 141.972656 L 120.59375 131.703125 C 120.59375 131.703125 131.121094 128.875 136.773438 132.050781 L 147.699219 146.785156 C 147.699219 146.785156 141.976562 155.46875 142.117188 157.125 C 142.257812 158.785156 139.410156 160.839844 139.246094 162.007812 C 139.082031 163.171875 138.195312 175.289062 138.195312 175.289062 Z M 129.019531 171.019531 " clip-rule="nonzero"/></clipPath><clipPath id="439e2dc365"><path d="M 113 142 L 126 142 L 126 155 L 113 155 Z M 113 142 " clip-rule="nonzero"/></clipPath><clipPath id="70d37f665a"><path d="M 129.019531 171.019531 C 129.019531 171.019531 129.347656 168.683594 118.023438 162.355469 L 113.613281 161.65625 L 119.820312 141.972656 L 120.59375 131.703125 C 120.59375 131.703125 131.121094 128.875 136.773438 132.050781 L 147.699219 146.785156 C 147.699219 146.785156 141.976562 155.46875 142.117188 157.125 C 142.257812 158.785156 139.410156 160.839844 139.246094 162.007812 C 139.082031 163.171875 138.195312 175.289062 138.195312 175.289062 Z M 129.019531 171.019531 " clip-rule="nonzero"/></clipPath><clipPath id="054333a213"><path d="M 114 134 L 125 134 L 125 143 L 114 143 Z M 114 134 " clip-rule="nonzero"/></clipPath><clipPath id="43f69ff1ed"><path d="M 129.019531 171.019531 C 129.019531 171.019531 129.347656 168.683594 118.023438 162.355469 L 113.613281 161.65625 L 119.820312 141.972656 L 120.59375 131.703125 C 120.59375 131.703125 131.121094 128.875 136.773438 132.050781 L 147.699219 146.785156 C 147.699219 146.785156 141.976562 155.46875 142.117188 157.125 C 142.257812 158.785156 139.410156 160.839844 139.246094 162.007812 C 139.082031 163.171875 138.195312 175.289062 138.195312 175.289062 Z M 129.019531 171.019531 " clip-rule="nonzero"/></clipPath><clipPath id="fd838fdc2d"><path d="M 124 133 L 131 133 L 131 143 L 124 143 Z M 124 133 " clip-rule="nonzero"/></clipPath><clipPath id="69c210aa93"><path d="M 129.019531 171.019531 C 129.019531 171.019531 129.347656 168.683594 118.023438 162.355469 L 113.613281 161.65625 L 119.820312 141.972656 L 120.59375 131.703125 C 120.59375 131.703125 131.121094 128.875 136.773438 132.050781 L 147.699219 146.785156 C 147.699219 146.785156 141.976562 155.46875 142.117188 157.125 C 142.257812 158.785156 139.410156 160.839844 139.246094 162.007812 C 139.082031 163.171875 138.195312 175.289062 138.195312 175.289062 Z M 129.019531 171.019531 " clip-rule="nonzero"/></clipPath><clipPath id="faa5c164a3"><path d="M 140 149 L 147.699219 149 L 147.699219 157 L 140 157 Z M 140 149 " clip-rule="nonzero"/></clipPath><clipPath id="5b33ca2af3"><path d="M 129.019531 171.019531 C 129.019531 171.019531 129.347656 168.683594 118.023438 162.355469 L 113.613281 161.65625 L 119.820312 141.972656 L 120.59375 131.703125 C 120.59375 131.703125 131.121094 128.875 136.773438 132.050781 L 147.699219 146.785156 C 147.699219 146.785156 141.976562 155.46875 142.117188 157.125 C 142.257812 158.785156 139.410156 160.839844 139.246094 162.007812 C 139.082031 163.171875 138.195312 175.289062 138.195312 175.289062 Z M 129.019531 171.019531 " clip-rule="nonzero"/></clipPath><clipPath id="2b1ac4d8ca"><path d="M 131 137 L 137 137 L 137 143 L 131 143 Z M 131 137 " clip-rule="nonzero"/></clipPath><clipPath id="ed99d95e9d"><path d="M 129.019531 171.019531 C 129.019531 171.019531 129.347656 168.683594 118.023438 162.355469 L 113.613281 161.65625 L 119.820312 141.972656 L 120.59375 131.703125 C 120.59375 131.703125 131.121094 128.875 136.773438 132.050781 L 147.699219 146.785156 C 147.699219 146.785156 141.976562 155.46875 142.117188 157.125 C 142.257812 158.785156 139.410156 160.839844 139.246094 162.007812 C 139.082031 163.171875 138.195312 175.289062 138.195312 175.289062 Z M 129.019531 171.019531 " clip-rule="nonzero"/></clipPath><clipPath id="b6dde625e8"><path d="M 137 134 L 142 134 L 142 142 L 137 142 Z M 137 134 " clip-rule="nonzero"/></clipPath><clipPath id="5f9ca29c46"><path d="M 129.019531 171.019531 C 129.019531 171.019531 129.347656 168.683594 118.023438 162.355469 L 113.613281 161.65625 L 119.820312 141.972656 L 120.59375 131.703125 C 120.59375 131.703125 131.121094 128.875 136.773438 132.050781 L 147.699219 146.785156 C 147.699219 146.785156 141.976562 155.46875 142.117188 157.125 C 142.257812 158.785156 139.410156 160.839844 139.246094 162.007812 C 139.082031 163.171875 138.195312 175.289062 138.195312 175.289062 Z M 129.019531 171.019531 " clip-rule="nonzero"/></clipPath><clipPath id="58eda385ba"><path d="M 131 133 L 136 133 L 136 136 L 131 136 Z M 131 133 " clip-rule="nonzero"/></clipPath><clipPath id="07ce573418"><path d="M 129.019531 171.019531 C 129.019531 171.019531 129.347656 168.683594 118.023438 162.355469 L 113.613281 161.65625 L 119.820312 141.972656 L 120.59375 131.703125 C 120.59375 131.703125 131.121094 128.875 136.773438 132.050781 L 147.699219 146.785156 C 147.699219 146.785156 141.976562 155.46875 142.117188 157.125 C 142.257812 158.785156 139.410156 160.839844 139.246094 162.007812 C 139.082031 163.171875 138.195312 175.289062 138.195312 175.289062 Z M 129.019531 171.019531 " clip-rule="nonzero"/></clipPath><clipPath id="786e5504a2"><path d="M 142 137 L 147 137 L 147 141 L 142 141 Z M 142 137 " clip-rule="nonzero"/></clipPath><clipPath id="d2e0b6d14e"><path d="M 129.019531 171.019531 C 129.019531 171.019531 129.347656 168.683594 118.023438 162.355469 L 113.613281 161.65625 L 119.820312 141.972656 L 120.59375 131.703125 C 120.59375 131.703125 131.121094 128.875 136.773438 132.050781 L 147.699219 146.785156 C 147.699219 146.785156 141.976562 155.46875 142.117188 157.125 C 142.257812 158.785156 139.410156 160.839844 139.246094 162.007812 C 139.082031 163.171875 138.195312 175.289062 138.195312 175.289062 Z M 129.019531 171.019531 " clip-rule="nonzero"/></clipPath><clipPath id="ec23c59f87"><path d="M 124 142 L 128 142 L 128 146 L 124 146 Z M 124 142 " clip-rule="nonzero"/></clipPath><clipPath id="67c055881e"><path d="M 129.019531 171.019531 C 129.019531 171.019531 129.347656 168.683594 118.023438 162.355469 L 113.613281 161.65625 L 119.820312 141.972656 L 120.59375 131.703125 C 120.59375 131.703125 131.121094 128.875 136.773438 132.050781 L 147.699219 146.785156 C 147.699219 146.785156 141.976562 155.46875 142.117188 157.125 C 142.257812 158.785156 139.410156 160.839844 139.246094 162.007812 C 139.082031 163.171875 138.195312 175.289062 138.195312 175.289062 Z M 129.019531 171.019531 " clip-rule="nonzero"/></clipPath><clipPath id="1b849795d3"><path d="M 93 129.601562 L 97.597656 129.601562 L 97.597656 302 L 93 302 Z M 93 129.601562 " clip-rule="nonzero"/></clipPath><clipPath id="6d5d321b03"><path d="M 66.847656 131 L 96 131 L 96 167 L 66.847656 167 Z M 66.847656 131 " clip-rule="nonzero"/></clipPath><clipPath id="9027377254"><path d="M 32.074219 24.242188 L 254.824219 24.242188 L 254.824219 407.492188 L 32.074219 407.492188 Z M 32.074219 24.242188 " clip-rule="nonzero"/></clipPath><clipPath id="4cdaee6f1d"><path d="M 240.246094 104.101562 L 304 104.101562 L 304 166.351562 L 240.246094 166.351562 Z M 240.246094 104.101562 " clip-rule="nonzero"/></clipPath><clipPath id="aa2948ed2d"><path d="M 310 104.101562 L 364 104.101562 L 364 166.351562 L 310 166.351562 Z M 310 104.101562 " clip-rule="nonzero"/></clipPath><clipPath id="543581e13d"><path d="M 356 104.101562 L 423 104.101562 L 423 166.351562 L 356 166.351562 Z M 356 104.101562 " clip-rule="nonzero"/></clipPath><clipPath id="80a3acdee3"><path d="M 428 104.101562 L 482 104.101562 L 482 166.351562 L 428 166.351562 Z M 428 104.101562 " clip-rule="nonzero"/></clipPath><clipPath id="800f83cb94"><path d="M 476 104.101562 L 531.996094 104.101562 L 531.996094 166.351562 L 476 166.351562 Z M 476 104.101562 " clip-rule="nonzero"/></clipPath><clipPath id="637f638e99"><path d="M 535.492188 132 L 571 132 L 571 166.5 L 535.492188 166.5 Z M 535.492188 132 " clip-rule="nonzero"/></clipPath><clipPath id="39de34ee6e"><path d="M 568 132 L 600 132 L 600 166.5 L 568 166.5 Z M 568 132 " clip-rule="nonzero"/></clipPath><clipPath id="1bfdf0acac"><path d="M 611 132 L 641 132 L 641 166.5 L 611 166.5 Z M 611 132 " clip-rule="nonzero"/></clipPath><clipPath id="0bce602fe1"><path d="M 636 132 L 674 132 L 674 166.5 L 636 166.5 Z M 636 132 " clip-rule="nonzero"/></clipPath><clipPath id="84d1102687"><path d="M 671 132 L 701.992188 132 L 701.992188 166.5 L 671 166.5 Z M 671 132 " clip-rule="nonzero"/></clipPath><clipPath id="253976099c"><path d="M 261.285156 189.269531 L 380 189.269531 L 380 285.269531 L 261.285156 285.269531 Z M 261.285156 189.269531 " clip-rule="nonzero"/></clipPath><clipPath id="25cbefc1c2"><path d="M 372 189.269531 L 474 189.269531 L 474 285.269531 L 372 285.269531 Z M 372 189.269531 " clip-rule="nonzero"/></clipPath><clipPath id="3381a0e6ec"><path d="M 468 189.269531 L 570 189.269531 L 570 285.269531 L 468 285.269531 Z M 468 189.269531 " clip-rule="nonzero"/></clipPath><clipPath id="409700f4e1"><path d="M 590 189.269531 L 692 189.269531 L 692 285.269531 L 590 285.269531 Z M 590 189.269531 " clip-rule="nonzero"/></clipPath><clipPath id="a111072d2d"><path d="M 688 189.269531 L 788 189.269531 L 788 285.269531 L 688 285.269531 Z M 688 189.269531 " clip-rule="nonzero"/></clipPath><clipPath id="9101cb9f86"><path d="M 781 189.269531 L 834 189.269531 L 834 285.269531 L 781 285.269531 Z M 781 189.269531 " clip-rule="nonzero"/></clipPath><clipPath id="f0faa3531c"><path d="M 825 189.269531 L 927 189.269531 L 927 285.269531 L 825 285.269531 Z M 825 189.269531 " clip-rule="nonzero"/></clipPath><clipPath id="7a831d09e8"><path d="M 493.394531 308.171875 L 516 308.171875 L 516 335 L 493.394531 335 Z M 493.394531 308.171875 " clip-rule="nonzero"/></clipPath><clipPath id="f5b9792017"><path d="M 557 308.171875 L 561 308.171875 L 561 316 L 557 316 Z M 557 308.171875 " clip-rule="nonzero"/></clipPath><clipPath id="adcf2cc032"><path d="M 599 308.171875 L 621 308.171875 L 621 335 L 599 335 Z M 599 308.171875 " clip-rule="nonzero"/></clipPath><clipPath id="9b03cba662"><path d="M 717 308.171875 L 739 308.171875 L 739 335 L 717 335 Z M 717 308.171875 " clip-rule="nonzero"/></clipPath><clipPath id="af84c15333"><path d="M 783 315 L 800 315 L 800 341.171875 L 783 341.171875 Z M 783 315 " clip-rule="nonzero"/></clipPath><clipPath id="54d62edfc8"><path d="M 804 308.171875 L 808 308.171875 L 808 335 L 804 335 Z M 804 308.171875 " clip-rule="nonzero"/></clipPath><clipPath id="01cf7c0237"><path d="M 831 308.171875 L 848 308.171875 L 848 335 L 831 335 Z M 831 308.171875 " clip-rule="nonzero"/></clipPath><clipPath id="dcaaa96927"><path d="M 893 308.171875 L 909.644531 308.171875 L 909.644531 335 L 893 335 Z M 893 308.171875 " clip-rule="nonzero"/></clipPath><clipPath id="b513888cf3"><path d="M 254.511719 308.171875 L 310 308.171875 L 310 359.921875 L 254.511719 359.921875 Z M 254.511719 308.171875 " clip-rule="nonzero"/></clipPath><clipPath id="263b14ba68"><path d="M 307 308.171875 L 361 308.171875 L 361 359.921875 L 307 359.921875 Z M 307 308.171875 " clip-rule="nonzero"/></clipPath><clipPath id="1b1013ba0d"><path d="M 357 308.171875 L 413 308.171875 L 413 359.921875 L 357 359.921875 Z M 357 308.171875 " clip-rule="nonzero"/></clipPath><clipPath id="f8e631929f"><path d="M 411 308.171875 L 463 308.171875 L 463 359.921875 L 411 359.921875 Z M 411 308.171875 " clip-rule="nonzero"/></clipPath></defs><g clip-path="url(#ca38ef0c3a)"><path fill="#ff914d" d="M 83.65625 302.371094 L 83.375 302.371094 C 83.207031 302.335938 83.046875 302.269531 82.902344 302.175781 C 82.757812 302.078125 82.632812 301.957031 82.535156 301.8125 C 82.4375 301.667969 82.371094 301.511719 82.335938 301.34375 C 82.296875 301.171875 82.296875 301 82.324219 300.828125 L 118.863281 130.652344 C 118.96875 130.328125 119.167969 130.078125 119.460938 129.90625 C 119.753906 129.734375 120.070312 129.683594 120.402344 129.753906 C 120.734375 129.824219 121.003906 129.996094 121.203125 130.269531 C 121.40625 130.542969 121.488281 130.847656 121.457031 131.1875 L 84.941406 301.34375 C 84.875 301.644531 84.722656 301.890625 84.480469 302.082031 C 84.238281 302.277344 83.964844 302.371094 83.65625 302.371094 Z M 83.65625 302.371094 " fill-opacity="1" fill-rule="nonzero"/></g><g clip-path="url(#f25c945c38)"><g clip-path="url(#444b367d94)"><path fill="#ff914d" d="M 120.453125 185.960938 C 119.835938 185.695312 119.453125 185.238281 119.308594 184.582031 C 118.699219 182.761719 118.117188 180.941406 117.511719 179.121094 C 115.480469 172.886719 113.402344 166.652344 111.394531 160.441406 C 110.996094 159.25 110.808594 157.96875 110.507812 156.753906 C 110.507812 156.355469 110.507812 156.167969 110.972656 156.097656 L 121.082031 154.277344 L 125.355469 153.484375 C 125.914062 153.484375 125.9375 153.484375 126.007812 153.972656 C 126.941406 160 127.851562 166.023438 128.789062 172.046875 C 129.160156 174.542969 129.535156 177.042969 129.929688 179.539062 C 129.980469 179.714844 129.96875 179.882812 129.898438 180.050781 C 129.832031 180.214844 129.714844 180.339844 129.558594 180.425781 L 122.015625 185.632812 C 121.554688 186.019531 121.03125 186.128906 120.453125 185.960938 Z M 120.453125 185.960938 " fill-opacity="1" fill-rule="nonzero"/></g></g><g clip-path="url(#46c02f9e78)"><g clip-path="url(#138057ef9d)"><path fill="#ff914d" d="M 133.527344 152.011719 C 133.527344 152.246094 133.527344 152.457031 133.363281 152.644531 C 132.941406 153.929688 132.523438 155.210938 132.078125 156.496094 C 132.011719 156.640625 131.992188 156.792969 132.027344 156.949219 C 132.0625 157.105469 132.140625 157.234375 132.265625 157.335938 C 132.492188 157.496094 132.742188 157.550781 133.011719 157.5 C 133.261719 157.375 133.433594 157.179688 133.527344 156.917969 C 134.109375 155.28125 134.648438 153.648438 135.160156 152.011719 C 135.183594 151.886719 135.242188 151.777344 135.335938 151.691406 C 135.433594 151.605469 135.546875 151.554688 135.675781 151.546875 C 136.726562 151.382812 137.753906 151.171875 138.804688 150.984375 C 139.082031 150.984375 139.175781 150.984375 139.363281 151.242188 C 139.980469 152.03125 140.65625 152.761719 141.394531 153.4375 C 143.640625 155.390625 146.210938 156.71875 149.097656 157.429688 L 151.058594 157.875 C 151.386719 157.875 151.480469 158.058594 151.386719 158.386719 C 150.867188 160.863281 149.917969 163.160156 148.535156 165.28125 C 147.15625 167.398438 145.4375 169.195312 143.378906 170.667969 C 139.832031 173.257812 136.1875 175.734375 132.59375 178.253906 C 132.476562 178.339844 132.351562 178.410156 132.21875 178.464844 C 132.171875 178.34375 132.132812 178.21875 132.101562 178.09375 L 128.320312 153.320312 C 128.320312 153.085938 128.320312 152.902344 128.601562 152.832031 C 130.164062 152.574219 131.707031 152.269531 133.269531 151.988281 Z M 133.527344 152.011719 " fill-opacity="1" fill-rule="nonzero"/></g></g><g clip-path="url(#3ba89cdb51)"><g clip-path="url(#2bd6a695ca)"><path fill="#ff914d" d="M 150.734375 147.179688 L 150.3125 147.320312 L 141.699219 148.886719 L 128.578125 151.21875 C 128.015625 151.21875 128.015625 151.21875 127.945312 150.753906 C 127.738281 149.445312 127.550781 148.160156 127.339844 146.855469 C 127.289062 146.558594 127.375 146.308594 127.597656 146.105469 C 127.929688 145.800781 128.195312 145.441406 128.390625 145.03125 C 128.441406 144.863281 128.539062 144.722656 128.679688 144.613281 C 128.820312 144.507812 128.980469 144.453125 129.160156 144.449219 L 139.832031 142.859375 L 147.464844 141.71875 C 147.613281 141.679688 147.757812 141.6875 147.894531 141.75 C 148.035156 141.8125 148.140625 141.910156 148.210938 142.042969 C 149.175781 143.507812 149.953125 145.066406 150.546875 146.714844 C 150.546875 146.714844 150.6875 147.015625 150.734375 147.179688 Z M 150.734375 147.179688 " fill-opacity="1" fill-rule="nonzero"/></g></g><g clip-path="url(#439e2dc365)"><g clip-path="url(#70d37f665a)"><path fill="#ff914d" d="M 117.347656 143.609375 C 118.632812 143.910156 119.890625 144.238281 121.175781 144.519531 C 121.675781 144.566406 122.171875 144.566406 122.671875 144.519531 C 122.925781 144.519531 123.066406 144.519531 123.136719 144.824219 C 123.398438 145.644531 123.921875 146.234375 124.703125 146.597656 C 124.914062 146.714844 125.039062 146.894531 125.074219 147.132812 C 125.332031 148.511719 125.519531 149.910156 125.753906 151.289062 C 125.753906 151.664062 125.753906 151.804688 125.332031 151.851562 L 114.382812 153.835938 L 110.902344 154.488281 C 110.507812 154.488281 110.414062 154.488281 110.390625 154.066406 C 110.371094 151.019531 110.992188 148.109375 112.257812 145.335938 C 112.652344 144.472656 113.144531 143.65625 113.589844 142.835938 C 113.726562 142.558594 113.914062 142.511719 114.21875 142.582031 L 117.347656 143.46875 Z M 117.347656 143.609375 " fill-opacity="1" fill-rule="nonzero"/></g></g><g clip-path="url(#054333a213)"><g clip-path="url(#43f69ff1ed)"><path fill="#ff914d" d="M 114.777344 141.132812 C 114.839844 140.984375 114.917969 140.84375 115.011719 140.714844 C 117.152344 138.117188 119.769531 136.148438 122.855469 134.804688 C 123.324219 134.597656 123.347656 134.621094 123.417969 135.132812 C 123.722656 137.117188 123.976562 139.101562 124.28125 141.085938 C 124.347656 141.359375 124.261719 141.570312 124.023438 141.71875 C 123.742188 141.929688 123.507812 142.1875 123.324219 142.488281 C 123.242188 142.660156 123.113281 142.789062 122.949219 142.878906 C 122.78125 142.96875 122.601562 143.003906 122.414062 142.976562 C 121.519531 142.921875 120.632812 142.804688 119.75 142.628906 C 118.164062 142.230469 116.578125 141.742188 115.082031 141.273438 Z M 114.777344 141.132812 " fill-opacity="1" fill-rule="nonzero"/></g></g><g clip-path="url(#fd838fdc2d)"><g clip-path="url(#69c210aa93)"><path fill="#ff914d" d="M 130.980469 142.582031 L 130.65625 142.699219 L 128.765625 142.976562 C 128.589844 142.964844 128.449219 142.886719 128.34375 142.746094 C 128.117188 142.347656 127.816406 142.019531 127.441406 141.761719 C 127.0625 141.503906 126.648438 141.339844 126.195312 141.273438 C 126.039062 141.214844 125.929688 141.105469 125.867188 140.945312 C 125.542969 138.796875 125.238281 136.652344 124.957031 134.503906 C 124.960938 134.332031 125.039062 134.207031 125.191406 134.128906 C 126.546875 133.824219 127.898438 133.570312 129.277344 133.3125 C 129.628906 133.3125 129.652344 133.5 129.675781 133.753906 C 130.023438 136.089844 130.398438 138.542969 130.75 140.945312 L 130.957031 142.324219 C 130.960938 142.410156 130.96875 142.496094 130.980469 142.582031 Z M 130.980469 142.582031 " fill-opacity="1" fill-rule="nonzero"/></g></g><g clip-path="url(#faa5c164a3)"><g clip-path="url(#5b33ca2af3)"><path fill="#ff914d" d="M 151.785156 156.425781 C 149.667969 156.144531 147.664062 155.503906 145.777344 154.503906 C 143.890625 153.503906 142.234375 152.207031 140.8125 150.613281 L 141.417969 150.613281 L 145.878906 149.796875 C 146.109375 149.796875 146.296875 149.796875 146.460938 149.980469 C 147.042969 150.832031 147.761719 151.542969 148.625 152.109375 C 149.484375 152.675781 150.421875 153.054688 151.433594 153.25 C 151.785156 153.25 151.925781 153.460938 151.902344 153.8125 C 151.855469 154.582031 151.832031 155.445312 151.785156 156.425781 Z M 151.785156 156.425781 " fill-opacity="1" fill-rule="nonzero"/></g></g><g clip-path="url(#2b1ac4d8ca)"><g clip-path="url(#ed99d95e9d)"><path fill="#ff914d" d="M 136.140625 137.023438 C 136.140625 137.023438 136.140625 137.234375 136.257812 137.351562 C 136.46875 138.707031 136.65625 140.082031 136.867188 141.4375 C 136.867188 141.671875 136.867188 141.789062 136.5625 141.832031 L 132.871094 142.394531 C 132.777344 142.417969 132.6875 142.398438 132.613281 142.335938 C 132.535156 142.273438 132.496094 142.191406 132.5 142.089844 L 131.867188 137.863281 C 131.867188 137.65625 131.867188 137.492188 132.148438 137.46875 L 135.882812 137.023438 Z M 136.140625 137.023438 " fill-opacity="1" fill-rule="nonzero"/></g></g><g clip-path="url(#b6dde625e8)"><g clip-path="url(#5f9ca29c46)"><path fill="#ff914d" d="M 137.449219 134.035156 C 138.429688 134.457031 139.386719 134.851562 140.320312 135.296875 C 140.4375 135.296875 140.53125 135.578125 140.554688 135.742188 C 140.859375 137.375 141.136719 139.03125 141.417969 140.691406 C 141.417969 140.992188 141.417969 141.132812 141.089844 141.15625 L 138.757812 141.507812 C 138.5 141.507812 138.359375 141.507812 138.3125 141.203125 L 137.402344 134.269531 C 137.410156 134.191406 137.425781 134.113281 137.449219 134.035156 Z M 137.449219 134.035156 " fill-opacity="1" fill-rule="nonzero"/></g></g><g clip-path="url(#58eda385ba)"><g clip-path="url(#07ce573418)"><path fill="#ff914d" d="M 131.167969 133.125 C 132.628906 133.101562 134.066406 133.257812 135.488281 133.59375 C 135.617188 133.65625 135.703125 133.757812 135.746094 133.894531 C 135.746094 134.292969 135.863281 134.714844 135.929688 135.132812 C 136 135.554688 135.929688 135.460938 135.652344 135.484375 C 134.414062 135.625 133.175781 135.785156 131.914062 135.902344 C 131.761719 135.914062 131.644531 135.851562 131.566406 135.71875 C 131.355469 134.875 131.355469 134.035156 131.167969 133.125 Z M 131.167969 133.125 " fill-opacity="1" fill-rule="nonzero"/></g></g><g clip-path="url(#786e5504a2)"><g clip-path="url(#d2e0b6d14e)"><path fill="#ff914d" d="M 146.765625 140.316406 L 143.308594 140.808594 C 143.175781 140.753906 143.082031 140.660156 143.027344 140.527344 C 142.84375 139.546875 142.679688 138.589844 142.492188 137.609375 C 142.492188 137.375 142.492188 137.257812 142.773438 137.210938 C 143.199219 137.066406 143.570312 137.152344 143.894531 137.46875 L 146.390625 139.804688 C 146.535156 139.960938 146.660156 140.132812 146.765625 140.316406 Z M 146.765625 140.316406 " fill-opacity="1" fill-rule="nonzero"/></g></g><g clip-path="url(#ec23c59f87)"><g clip-path="url(#67c055881e)"><path fill="#ff914d" d="M 127.011719 144.402344 C 126.960938 144.566406 126.875 144.710938 126.765625 144.84375 C 126.652344 144.972656 126.519531 145.074219 126.367188 145.152344 C 126.210938 145.230469 126.050781 145.273438 125.878906 145.285156 C 125.707031 145.296875 125.539062 145.273438 125.378906 145.21875 C 125.210938 145.171875 125.058594 145.09375 124.925781 144.980469 C 124.792969 144.871094 124.683594 144.738281 124.605469 144.582031 C 124.523438 144.429688 124.480469 144.265625 124.46875 144.089844 C 124.457031 143.917969 124.480469 143.75 124.539062 143.585938 C 124.582031 143.40625 124.65625 143.246094 124.769531 143.101562 C 124.878906 142.957031 125.015625 142.839844 125.171875 142.75 C 125.332031 142.660156 125.503906 142.609375 125.6875 142.589844 C 125.867188 142.574219 126.046875 142.59375 126.21875 142.652344 C 126.390625 142.707031 126.546875 142.796875 126.683594 142.921875 C 126.820312 143.042969 126.925781 143.1875 127 143.351562 C 127.074219 143.519531 127.113281 143.691406 127.117188 143.875 C 127.117188 144.058594 127.082031 144.234375 127.011719 144.402344 Z M 127.011719 144.402344 " fill-opacity="1" fill-rule="nonzero"/></g></g><g clip-path="url(#1b849795d3)"><path fill="#037d52" d="M 96.363281 301.921875 C 96.199219 301.921875 96.039062 301.890625 95.886719 301.828125 C 95.734375 301.765625 95.597656 301.675781 95.480469 301.5625 C 95.363281 301.445312 95.269531 301.3125 95.207031 301.160156 C 95.140625 301.007812 95.105469 300.851562 95.101562 300.6875 L 93.359375 130.96875 C 93.359375 130.800781 93.390625 130.640625 93.457031 130.484375 C 93.519531 130.328125 93.613281 130.191406 93.734375 130.074219 C 93.855469 129.953125 93.992188 129.863281 94.152344 129.800781 C 94.308594 129.738281 94.46875 129.707031 94.640625 129.710938 C 94.804688 129.710938 94.964844 129.742188 95.117188 129.804688 C 95.269531 129.867188 95.402344 129.957031 95.523438 130.074219 C 95.640625 130.1875 95.730469 130.320312 95.796875 130.472656 C 95.863281 130.625 95.894531 130.78125 95.898438 130.949219 L 97.597656 300.707031 C 97.601562 300.871094 97.574219 301.03125 97.515625 301.1875 C 97.453125 301.339844 97.367188 301.476562 97.253906 301.597656 C 97.140625 301.714844 97.007812 301.808594 96.859375 301.878906 C 96.707031 301.945312 96.550781 301.984375 96.382812 301.988281 Z M 96.363281 301.921875 " fill-opacity="1" fill-rule="nonzero"/></g><g clip-path="url(#6d5d321b03)"><path fill="#037d52" d="M 88.234375 132.914062 C 88.234375 132.914062 87.96875 134.855469 72.484375 139.074219 L 66.960938 139.273438 L 68.902344 156.050781 L 66.847656 164.574219 C 66.847656 164.574219 78.734375 167.863281 86.488281 165.765625 L 94 164 C 94 164 92.671875 147.75 93.3125 146.335938 C 94.1875 144.589844 94.921875 142.785156 95.523438 140.925781 C 95.65625 139.957031 95.167969 131.191406 95.167969 131.191406 Z M 88.234375 132.914062 " fill-opacity="1" fill-rule="nonzero"/></g><path fill="#dd2127" d="M 85.691406 150.179688 C 85.691406 150.660156 85.664062 151.140625 85.605469 151.613281 C 85.546875 152.085938 85.460938 152.546875 85.347656 152.992188 C 85.234375 153.4375 85.09375 153.863281 84.929688 154.261719 C 84.765625 154.664062 84.578125 155.035156 84.367188 155.375 C 84.15625 155.71875 83.925781 156.023438 83.679688 156.292969 C 83.433594 156.558594 83.171875 156.785156 82.898438 156.96875 C 82.621094 157.15625 82.339844 157.292969 82.046875 157.390625 C 81.757812 157.484375 81.460938 157.53125 81.164062 157.53125 C 80.867188 157.53125 80.574219 157.484375 80.28125 157.390625 C 79.988281 157.292969 79.707031 157.15625 79.429688 156.96875 C 79.15625 156.785156 78.894531 156.558594 78.648438 156.292969 C 78.402344 156.023438 78.171875 155.71875 77.960938 155.375 C 77.75 155.035156 77.5625 154.664062 77.398438 154.261719 C 77.234375 153.863281 77.09375 153.4375 76.980469 152.992188 C 76.867188 152.546875 76.78125 152.085938 76.722656 151.613281 C 76.664062 151.140625 76.636719 150.660156 76.636719 150.179688 C 76.636719 149.695312 76.664062 149.21875 76.722656 148.742188 C 76.78125 148.269531 76.867188 147.8125 76.980469 147.363281 C 77.09375 146.917969 77.234375 146.496094 77.398438 146.09375 C 77.5625 145.691406 77.75 145.320312 77.960938 144.980469 C 78.171875 144.636719 78.402344 144.332031 78.648438 144.066406 C 78.894531 143.796875 79.15625 143.570312 79.429688 143.386719 C 79.707031 143.199219 79.988281 143.0625 80.28125 142.96875 C 80.574219 142.875 80.867188 142.824219 81.164062 142.824219 C 81.460938 142.824219 81.757812 142.875 82.046875 142.96875 C 82.339844 143.0625 82.621094 143.199219 82.898438 143.386719 C 83.171875 143.570312 83.433594 143.796875 83.679688 144.066406 C 83.925781 144.332031 84.15625 144.636719 84.367188 144.980469 C 84.578125 145.320312 84.765625 145.691406 84.929688 146.09375 C 85.09375 146.496094 85.234375 146.917969 85.347656 147.363281 C 85.460938 147.8125 85.546875 148.269531 85.605469 148.742188 C 85.664062 149.21875 85.691406 149.695312 85.691406 150.179688 Z M 85.691406 150.179688 " fill-opacity="1" fill-rule="nonzero"/><g clip-path="url(#9027377254)"><path fill="#037d52" d="M 246.28125 208.429688 C 237.460938 162.339844 225.71875 117 211.0625 72.414062 C 206.128906 57.167969 200.78125 42.058594 195.652344 26.898438 C 195.21875 25.96875 194.707031 25.082031 194.109375 24.242188 L 193.230469 24.636719 C 193.234375 25.46875 193.292969 26.296875 193.40625 27.121094 C 198.882812 57.960938 202.417969 89.019531 204.015625 120.300781 C 205.292969 146.882812 205.050781 173.417969 200.671875 199.777344 C 199.285156 208.679688 197 217.347656 193.816406 225.78125 C 190.636719 234.214844 186.625 242.230469 181.785156 249.839844 C 175.949219 258.625 154.136719 280.109375 150.855469 283.292969 L 150.460938 283.6875 L 150.746094 283.820312 C 150.128906 284.304688 149.535156 284.808594 148.917969 285.269531 C 138.953125 292.96875 128.300781 299.558594 116.957031 305.039062 C 115.542969 305.664062 114.074219 305.832031 112.554688 305.546875 C 110.101562 304.988281 107.707031 304.242188 105.378906 303.296875 C 103.046875 302.355469 100.804688 301.226562 98.65625 299.921875 C 96.511719 298.613281 94.480469 297.144531 92.574219 295.507812 C 90.664062 293.871094 88.902344 292.089844 87.285156 290.167969 C 77.796875 279.777344 71.609375 267.433594 66.503906 254.472656 C 61.0625 240.1875 56.871094 225.542969 53.933594 210.539062 C 53.824219 209.96875 53.824219 209.375 53.714844 208.34375 L 54.046875 208.539062 C 53.699219 207.34375 53.429688 206.125 53.230469 204.894531 L 53.011719 204.761719 L 52.636719 201.269531 L 52.8125 201.269531 C 52.8125 200.304688 52.8125 199.335938 52.8125 198.390625 C 51.996094 197.382812 51.511719 196.230469 51.359375 194.945312 C 48.308594 176.085938 46.261719 157.121094 45.21875 138.050781 C 45.21875 137.171875 44.976562 136.292969 44.84375 135.414062 L 43.742188 135.414062 C 43.511719 136.320312 43.335938 137.234375 43.214844 138.160156 C 43.039062 139.960938 43.609375 142.15625 42.773438 143.542969 L 41.804688 187.980469 C 41.804688 188.945312 41.804688 189.628906 41.804688 190.332031 C 41.804688 191.035156 41.804688 191.40625 41.652344 192.023438 L 41.34375 191.847656 L 41.34375 192.636719 L 40.835938 192.460938 C 40.835938 192.855469 40.835938 193.253906 40.683594 193.648438 C 40.53125 194.042969 40.816406 194.503906 40.882812 194.921875 L 41.320312 195.164062 L 41.34375 197.777344 C 41.460938 199.242188 41.460938 200.707031 41.34375 202.171875 C 41.546875 202.933594 41.625 203.710938 41.585938 204.5 C 41.167969 213.285156 41.101562 222.074219 40.902344 230.859375 C 40.660156 241.492188 41.144531 252.210938 39.980469 262.734375 C 38.722656 273.933594 35.972656 284.984375 33.773438 296.078125 C 32.570312 300.308594 32.332031 304.589844 33.046875 308.929688 C 37.03125 325.535156 40.792969 342.183594 45.21875 358.660156 C 48.023438 369.628906 52.375 379.945312 58.273438 389.609375 C 58.996094 390.886719 59.847656 392.074219 60.816406 393.175781 C 61.785156 394.277344 62.859375 395.265625 64.03125 396.148438 C 65.207031 397.03125 66.457031 397.785156 67.785156 398.414062 C 69.113281 399.039062 70.492188 399.523438 71.917969 399.871094 C 79.46875 401.605469 87.042969 403.449219 94.722656 404.503906 C 118.867188 407.636719 143.082031 408.324219 167.367188 406.570312 C 181.390625 405.96875 195.148438 403.734375 208.640625 399.871094 C 210.722656 399.285156 212.742188 398.527344 214.699219 397.59375 C 216.652344 396.664062 218.511719 395.570312 220.277344 394.316406 C 222.042969 393.066406 223.6875 391.671875 225.210938 390.136719 C 226.734375 388.601562 228.113281 386.945312 229.351562 385.175781 C 233.933594 378.457031 237.605469 371.273438 240.359375 363.625 C 250.199219 336.871094 253.566406 309.058594 254.292969 280.765625 C 254.867188 256.316406 250.75 232.332031 246.28125 208.429688 Z M 44.601562 169.75 L 45.238281 169.75 L 45.238281 186.441406 L 44.601562 186.441406 Z M 241.660156 266.53125 C 241.648438 267.0625 241.527344 267.5625 241.292969 268.035156 C 241.058594 268.507812 240.730469 268.90625 240.316406 269.234375 C 232.851562 273.277344 225.191406 277.253906 217.445312 281.25 C 211.390625 284.214844 176.347656 301.394531 166.109375 305.414062 L 165.914062 305.214844 C 150 312.0625 133.773438 318.082031 117.242188 323.273438 C 132.367188 315.539062 147.203125 307.433594 160.210938 295.96875 C 166.082031 290.0625 171.476562 283.75 176.390625 277.03125 L 204.347656 265.125 L 241.019531 248.894531 C 241.019531 250.429688 241.238281 251.683594 241.285156 252.914062 C 241.660156 257.484375 241.660156 262.007812 241.660156 266.53125 Z M 240.644531 238.347656 C 240.820312 241.03125 241.679688 244.257812 240.515625 246.234375 C 239.347656 248.210938 236.109375 248.652344 233.691406 249.707031 C 223.34375 254.296875 212.996094 258.84375 202.695312 263.480469 L 179.582031 272.59375 C 182.347656 268.503906 184.710938 264.191406 186.671875 259.65625 L 190.789062 255.265625 C 192.085938 252.34375 193.339844 249.464844 194.640625 246.632812 C 195.03125 245.839844 195.617188 245.242188 196.402344 244.828125 C 210.3125 237.507812 224.253906 230.265625 238.222656 223.105469 C 238.648438 222.9375 239.082031 222.796875 239.523438 222.6875 C 239.964844 227.980469 240.402344 233.164062 240.710938 238.347656 Z M 239.082031 218.777344 C 238.988281 219.542969 238.605469 220.121094 237.9375 220.511719 C 224.378906 227.617188 210.773438 234.679688 197.125 241.710938 C 197.125 241.710938 196.949219 241.710938 196.578125 241.710938 C 197.015625 240.238281 197.523438 238.789062 197.875 237.316406 C 199.304688 231.5625 200.625 225.785156 202.101562 220.050781 C 202.328125 218.949219 202.871094 218.035156 203.730469 217.304688 C 214.320312 209.769531 224.972656 202.324219 235.605469 194.855469 C 235.945312 194.734375 236.289062 194.632812 236.640625 194.546875 C 237.496094 202.699219 238.378906 210.738281 239.148438 218.777344 Z M 228.078125 143.167969 C 229.550781 151.253906 231.027344 159.359375 232.480469 167.464844 C 232.515625 168.25 232.246094 168.90625 231.664062 169.441406 C 223.410156 176.03125 215.132812 182.753906 206.503906 189.648438 C 206.402344 188.921875 206.34375 188.1875 206.328125 187.453125 C 206.4375 183.808594 206.902344 180.117188 206.660156 176.46875 C 206.542969 174.5625 206.792969 172.707031 207.414062 170.898438 C 208.039062 169.089844 208.980469 167.46875 210.246094 166.035156 C 216.144531 158.523438 221.738281 150.660156 227.4375 143.082031 Z M 219.820312 107.714844 C 221.671875 115.269531 222.925781 122.5 225.214844 129.375 C 225.53125 130.144531 225.792969 130.929688 225.992188 131.738281 C 226.191406 132.546875 226.328125 133.363281 226.40625 134.191406 C 226.484375 135.019531 226.496094 135.851562 226.449219 136.679688 C 226.402344 137.511719 226.292969 138.332031 226.121094 139.148438 C 225.953125 139.960938 225.722656 140.757812 225.429688 141.539062 C 225.140625 142.320312 224.792969 143.070312 224.390625 143.800781 C 223.988281 144.527344 223.53125 145.222656 223.023438 145.882812 C 222.515625 146.542969 221.964844 147.160156 221.363281 147.738281 C 216.90625 152.988281 212.753906 158.464844 208.902344 164.167969 C 208.351562 164.894531 207.757812 165.597656 207.164062 166.367188 L 206.4375 166.191406 C 206.4375 164.148438 206.4375 162.105469 206.4375 160.0625 C 206.4375 154.152344 206.59375 148.222656 206.722656 142.3125 C 206.710938 141.441406 206.859375 140.601562 207.164062 139.785156 C 211.082031 129.535156 215.03125 119.285156 219.007812 109.03125 C 219.25 108.578125 219.523438 108.136719 219.820312 107.714844 Z M 211.523438 80.585938 C 213.722656 87.59375 215.925781 94.578125 217.90625 101.585938 C 218.320312 102.652344 218.402344 103.742188 218.148438 104.859375 C 214.539062 114.457031 210.796875 124.015625 207.144531 133.589844 L 206.722656 133.589844 C 206.285156 125.089844 206.128906 116.566406 205.316406 108.109375 C 204.558594 100.921875 205.019531 93.8125 206.703125 86.78125 C 207.714844 82.695312 208.265625 78.476562 209.496094 74.28125 C 210.160156 76.347656 210.839844 78.457031 211.523438 80.585938 Z M 204.238281 88.1875 L 203.882812 88.1875 C 201.835938 71.976562 199.835938 55.851562 197.632812 39.136719 C 198.117188 40.253906 198.425781 40.828125 198.644531 41.464844 C 201.484375 49.875 204.367188 58.289062 207.144531 66.726562 C 207.519531 67.972656 207.589844 69.242188 207.363281 70.523438 C 206.4375 76.414062 205.292969 82.300781 204.238281 88.1875 Z M 204.238281 207.113281 C 204.789062 203.070312 205.207031 198.984375 205.800781 194.945312 C 205.90625 193.917969 206.308594 193.023438 207.011719 192.265625 C 215.398438 185.453125 223.851562 178.734375 232.304688 171.988281 C 232.621094 171.839844 232.949219 171.730469 233.292969 171.660156 C 234.21875 178.03125 235.164062 184.289062 235.980469 190.550781 C 235.902344 191.320312 235.550781 191.9375 234.921875 192.394531 C 224.648438 199.71875 214.304688 206.972656 203.882812 214.164062 C 203.882812 214.164062 203.554688 214.164062 203.09375 214.296875 C 203.488281 211.835938 203.929688 209.484375 204.238281 207.113281 Z M 98.996094 302.800781 L 98.996094 303.457031 L 88.121094 303.457031 L 88.121094 303.214844 Z M 83.167969 300.25 L 83.167969 300.492188 L 41.9375 300.492188 L 42.046875 300.25 Z M 47.332031 230.15625 L 47.332031 260.625 L 47.089844 260.625 L 47.089844 230.132812 Z M 43.765625 220.292969 L 43.765625 231.277344 L 43.546875 231.277344 L 43.546875 220.292969 Z M 43.390625 242.257812 L 43.390625 254.582031 L 43.015625 254.582031 L 43.015625 242.148438 Z M 39.144531 303.214844 C 53.429688 303.214844 67.757812 303.214844 82.023438 303.214844 L 84.886719 303.214844 L 84.886719 303.566406 C 68.949219 303.566406 53.003906 303.566406 37.050781 303.566406 C 36.304688 303.484375 35.644531 303.199219 35.070312 302.710938 C 36.414062 302.976562 37.773438 303.148438 39.144531 303.214844 Z M 36.347656 306.554688 C 36.859375 306.441406 37.375 306.441406 37.886719 306.554688 L 103.925781 306.554688 C 104.707031 306.503906 105.441406 306.664062 106.125 307.039062 L 102.804688 307.039062 C 81.597656 307.039062 60.40625 307.039062 39.230469 307.039062 C 37.851562 307.222656 36.507812 307.554688 35.203125 308.027344 C 35.730469 307.28125 35.996094 306.710938 36.433594 306.488281 Z M 38.0625 314.132812 C 46.867188 314.355469 55.960938 314.132812 65.160156 314.132812 C 74.363281 314.132812 83.628906 314.132812 92.851562 314.242188 C 82.023438 315.363281 38.855469 314.707031 38.152344 314.066406 Z M 83.9375 318.109375 L 76.300781 318.109375 C 65.667969 318.109375 55.015625 317.976562 44.382812 318 C 43.359375 318.238281 42.402344 318.640625 41.519531 319.207031 L 40.066406 317.671875 L 84.09375 317.671875 Z M 39.144531 329.050781 C 38.613281 325.558594 37.667969 322.128906 37.140625 318.484375 C 38.878906 320.550781 40.933594 322.230469 43.308594 323.523438 C 45.683594 324.816406 48.214844 325.632812 50.898438 325.972656 C 57.054688 326.601562 63.109375 326.070312 69.058594 324.371094 C 76.652344 322.652344 84.132812 320.523438 91.492188 317.980469 C 98.855469 315.441406 106.050781 312.5 113.085938 309.164062 C 120.121094 305.828125 126.949219 302.113281 133.574219 298.023438 C 140.195312 293.933594 146.574219 289.492188 152.707031 284.699219 C 163.621094 274.382812 173.605469 263.238281 182.664062 251.265625 L 183.105469 251.441406 C 188.175781 243.597656 192.371094 235.308594 195.6875 226.582031 C 199.003906 217.851562 201.367188 208.871094 202.785156 199.644531 C 201.894531 209 200.140625 218.191406 197.519531 227.21875 C 194.898438 236.246094 191.457031 244.949219 187.199219 253.332031 C 187.199219 253.332031 176.675781 276.617188 158.847656 290.035156 C 154.484375 294.160156 149.8125 297.894531 144.824219 301.238281 C 133.171875 309.214844 120.890625 316.054688 107.972656 321.769531 C 95.054688 327.480469 81.726562 331.964844 67.980469 335.222656 C 62.664062 336.230469 57.300781 336.726562 51.886719 336.714844 C 49.511719 336.683594 47.207031 336.257812 44.976562 335.441406 C 44.21875 335.273438 43.503906 334.996094 42.835938 334.605469 C 42.164062 334.21875 41.566406 333.738281 41.046875 333.167969 C 40.523438 332.59375 40.101562 331.957031 39.777344 331.253906 C 39.449219 330.550781 39.238281 329.816406 39.144531 329.050781 Z M 238.53125 299.613281 C 233.910156 308.992188 226.710938 316.15625 218.722656 322.570312 C 204.105469 333.867188 188.101562 342.65625 170.710938 348.929688 C 144.40625 358.945312 117.507812 366.503906 89.265625 368.960938 C 77.117188 370.226562 65.03125 369.78125 53.011719 367.621094 C 52.496094 367.589844 51.996094 367.476562 51.519531 367.28125 C 51.039062 367.082031 50.609375 366.8125 50.222656 366.46875 C 49.835938 366.128906 49.515625 365.730469 49.261719 365.28125 C 49.007812 364.832031 48.832031 364.351562 48.738281 363.84375 C 47.835938 360.328125 46.539062 356.902344 45.285156 352.859375 C 49.601562 354.378906 54.035156 355.390625 58.585938 355.886719 C 63.136719 356.382812 67.683594 356.355469 72.226562 355.804688 C 87.933594 354.5 103.414062 351.886719 118.675781 347.960938 C 141.742188 342.0625 164.0625 334.082031 185.636719 324.019531 L 185.769531 324.019531 L 189.378906 322.175781 C 189.378906 322.175781 213.855469 310.289062 221.847656 305.414062 L 221.847656 305.566406 C 227.261719 302.382812 232.546875 298.976562 237.9375 295.75 L 240.140625 294.472656 L 240.625 294.824219 C 239.917969 296.472656 239.457031 298.097656 238.621094 299.613281 Z M 240.734375 290.015625 C 240.542969 290.957031 240.042969 291.6875 239.238281 292.210938 C 233.574219 295.726562 227.878906 299.191406 222.15625 302.601562 C 222.15625 302.777344 222.15625 302.929688 222.15625 303.105469 C 216.894531 305.941406 196.730469 316.726562 187.089844 321.25 C 178.285156 324.941406 170.09375 328.566406 161.730469 331.839844 C 136.253906 342.070312 109.90625 348.980469 82.683594 352.574219 C 72.886719 353.785156 63.070312 354.773438 53.230469 352.925781 L 51.183594 352.464844 C 46.78125 351.652344 43.742188 349.566406 43.191406 344.644531 C 42.695312 341.855469 42.011719 339.109375 41.144531 336.40625 C 49.113281 339.855469 57.191406 339.59375 65.359375 339.242188 C 75.398438 338.800781 84.839844 335.59375 94.4375 332.914062 C 119.496094 325.871094 143.996094 317.253906 167.9375 307.0625 C 167.9375 307.0625 210.464844 287.839844 218.632812 283.007812 L 218.632812 283.160156 L 241.878906 271.234375 C 241.660156 277.890625 241.351562 283.953125 240.910156 290.035156 Z M 240.734375 290.015625 " fill-opacity="1" fill-rule="nonzero"/></g><g clip-path="url(#4cdaee6f1d)"><path fill="#000000" d="M 290.207031 131.355469 C 291.449219 131.246094 292.644531 131.429688 293.800781 131.898438 C 294.953125 132.367188 295.9375 133.070312 296.753906 134.011719 C 297.484375 135.03125 297.945312 136.160156 298.140625 137.398438 C 298.335938 138.636719 298.242188 139.855469 297.867188 141.050781 L 294.652344 156.511719 C 294.371094 157.890625 293.871094 159.183594 293.148438 160.394531 C 292.425781 161.601562 291.523438 162.652344 290.441406 163.546875 C 289.386719 164.429688 288.214844 165.097656 286.917969 165.554688 C 285.625 166.015625 284.292969 166.230469 282.921875 166.207031 L 248.039062 166.207031 C 246.816406 166.3125 245.636719 166.128906 244.503906 165.660156 C 243.367188 165.191406 242.402344 164.484375 241.609375 163.546875 C 240.890625 162.527344 240.425781 161.398438 240.222656 160.164062 C 240.015625 158.929688 240.089844 157.710938 240.441406 156.511719 L 242.195312 148.144531 L 262.808594 148.144531 L 260.667969 158.484375 L 273.546875 158.484375 L 277.660156 139.074219 L 253.886719 139.074219 C 252.65625 139.175781 251.472656 138.992188 250.328125 138.527344 C 249.1875 138.0625 248.207031 137.367188 247.394531 136.4375 C 246.667969 135.414062 246.207031 134.28125 246.011719 133.039062 C 245.816406 131.796875 245.90625 130.578125 246.285156 129.378906 L 249.460938 114.015625 C 249.734375 112.621094 250.234375 111.3125 250.953125 110.085938 C 251.675781 108.863281 252.582031 107.792969 253.671875 106.882812 C 254.726562 106.007812 255.902344 105.34375 257.199219 104.890625 C 258.492188 104.4375 259.824219 104.222656 261.191406 104.242188 L 295.9375 104.242188 C 297.164062 104.140625 298.347656 104.320312 299.492188 104.78125 C 300.632812 105.242188 301.609375 105.9375 302.425781 106.863281 C 303.15625 107.871094 303.621094 108.996094 303.816406 110.226562 C 304.011719 111.460938 303.917969 112.671875 303.535156 113.859375 L 301.839844 122.207031 L 281.167969 122.207031 L 283.386719 112.0625 L 270.507812 112.0625 L 266.394531 131.453125 Z M 290.207031 131.355469 " fill-opacity="1" fill-rule="nonzero"/></g><g clip-path="url(#aa2948ed2d)"><path fill="#000000" d="M 361.820312 112.0625 L 346.425781 112.0625 L 334.96875 166.207031 L 314.292969 166.207031 L 325.828125 112.0625 L 310.394531 112.0625 L 312.03125 104.242188 L 363.417969 104.242188 Z M 361.820312 112.0625 " fill-opacity="1" fill-rule="nonzero"/></g><g clip-path="url(#543581e13d)"><path fill="#000000" d="M 410.867188 166.207031 L 390.289062 166.207031 L 394.402344 146.816406 L 381.5 146.816406 L 377.390625 166.207031 L 356.792969 166.207031 L 367.800781 114.015625 C 368.085938 112.636719 368.585938 111.339844 369.308594 110.128906 C 370.03125 108.917969 370.929688 107.863281 372.011719 106.960938 C 373.066406 106.074219 374.238281 105.398438 375.53125 104.929688 C 376.824219 104.460938 378.160156 104.234375 379.535156 104.242188 L 414.277344 104.242188 C 415.507812 104.144531 416.691406 104.324219 417.835938 104.789062 C 418.976562 105.253906 419.953125 105.953125 420.765625 106.882812 C 421.503906 107.914062 421.972656 109.058594 422.167969 110.316406 C 422.363281 111.574219 422.265625 112.804688 421.878906 114.015625 Z M 388.847656 112.0625 L 383.117188 139.074219 L 396.019531 139.074219 L 401.746094 112.0625 Z M 388.847656 112.0625 " fill-opacity="1" fill-rule="nonzero"/></g><g clip-path="url(#80a3acdee3)"><path fill="#000000" d="M 480.160156 112.0625 L 464.765625 112.0625 L 453.308594 166.207031 L 432.710938 166.207031 L 444.167969 112.0625 L 428.777344 112.0625 L 430.394531 104.242188 L 481.875 104.242188 Z M 480.160156 112.0625 " fill-opacity="1" fill-rule="nonzero"/></g><g clip-path="url(#800f83cb94)"><path fill="#000000" d="M 484.816406 166.207031 C 483.589844 166.304688 482.402344 166.117188 481.257812 165.652344 C 480.117188 165.183594 479.140625 164.480469 478.328125 163.546875 C 477.601562 162.527344 477.140625 161.398438 476.941406 160.164062 C 476.742188 158.925781 476.828125 157.707031 477.199219 156.511719 L 486.164062 114.015625 C 486.4375 112.632812 486.933594 111.332031 487.65625 110.121094 C 488.378906 108.910156 489.285156 107.855469 490.371094 106.960938 C 491.421875 106.070312 492.589844 105.394531 493.878906 104.925781 C 495.171875 104.460938 496.503906 104.230469 497.875 104.242188 L 531.996094 104.242188 L 530.378906 112.0625 L 507.207031 112.0625 L 503.097656 131.453125 L 521.082031 131.453125 L 519.484375 139.269531 L 501.480469 139.269531 L 497.367188 158.679688 L 520.554688 158.679688 L 518.898438 166.207031 Z M 484.816406 166.207031 " fill-opacity="1" fill-rule="nonzero"/></g><g clip-path="url(#637f638e99)"><path fill="#000000" d="M 565.410156 161.03125 C 565.09375 162.609375 564.324219 163.917969 563.097656 164.953125 C 561.898438 165.949219 560.519531 166.433594 558.96875 166.40625 L 539.847656 166.40625 C 539.171875 166.460938 538.519531 166.363281 537.894531 166.105469 C 537.265625 165.851562 536.730469 165.464844 536.28125 164.953125 C 535.878906 164.386719 535.625 163.753906 535.515625 163.066406 C 535.40625 162.375 535.457031 161.695312 535.664062 161.03125 L 540.632812 137.46875 C 540.941406 135.902344 541.699219 134.605469 542.914062 133.582031 C 544.109375 132.574219 545.484375 132.085938 547.042969 132.113281 L 566.148438 132.113281 C 566.832031 132.050781 567.492188 132.148438 568.132812 132.40625 C 568.769531 132.667969 569.3125 133.058594 569.761719 133.582031 C 570.164062 134.144531 570.417969 134.769531 570.527344 135.453125 C 570.636719 136.136719 570.585938 136.808594 570.378906 137.46875 Z M 552.167969 136.382812 L 546.75 162.121094 L 553.84375 162.121094 L 559.261719 136.382812 Z M 552.167969 136.382812 " fill-opacity="1" fill-rule="nonzero"/></g><g clip-path="url(#39de34ee6e)"><path fill="#000000" d="M 598.894531 136.382812 L 586.144531 136.382812 L 583.882812 147.117188 L 593.753906 147.117188 L 592.863281 151.386719 L 582.992188 151.386719 L 579.839844 166.390625 L 568.511719 166.390625 L 574.578125 137.46875 C 574.894531 135.898438 575.664062 134.601562 576.890625 133.582031 C 578.085938 132.574219 579.464844 132.085938 581.019531 132.113281 L 599.871094 132.113281 Z M 598.894531 136.382812 " fill-opacity="1" fill-rule="nonzero"/></g><g clip-path="url(#1bfdf0acac)"><path fill="#000000" d="M 639.484375 136.382812 L 631.019531 136.382812 L 624.714844 166.390625 L 613.390625 166.390625 L 619.695312 136.382812 L 611.128906 136.382812 L 612.105469 132.113281 L 640.375 132.113281 Z M 639.484375 136.382812 " fill-opacity="1" fill-rule="nonzero"/></g><g clip-path="url(#0bce602fe1)"><path fill="#000000" d="M 666.472656 166.390625 L 655.148438 166.390625 L 657.410156 155.65625 L 650.296875 155.65625 L 648.035156 166.390625 L 636.726562 166.390625 L 643.921875 132.113281 L 655.25 132.113281 L 651.207031 151.386719 L 658.300781 151.386719 L 662.292969 132.113281 L 673.617188 132.113281 Z M 666.472656 166.390625 " fill-opacity="1" fill-rule="nonzero"/></g><g clip-path="url(#84d1102687)"><path fill="#000000" d="M 676 166.390625 C 675.332031 166.441406 674.683594 166.339844 674.0625 166.085938 C 673.4375 165.835938 672.902344 165.457031 672.453125 164.953125 C 672.050781 164.386719 671.796875 163.761719 671.691406 163.074219 C 671.585938 162.386719 671.640625 161.710938 671.851562 161.046875 L 676.769531 137.46875 C 677.085938 135.898438 677.855469 134.601562 679.085938 133.582031 C 680.28125 132.574219 681.65625 132.085938 683.214844 132.113281 L 702.0625 132.113281 L 701.171875 136.382812 L 688.335938 136.382812 L 686.074219 147.117188 L 695.980469 147.117188 L 695.089844 151.386719 L 685.183594 151.386719 L 682.855469 162.121094 L 695.621094 162.121094 L 694.847656 166.390625 Z M 676 166.390625 " fill-opacity="1" fill-rule="nonzero"/></g><g clip-path="url(#253976099c)"><path fill="#000000" d="M 359.65625 285.269531 L 327.921875 285.269531 L 339.699219 229.609375 L 307.679688 285.269531 L 294.769531 285.269531 L 285.484375 229.609375 L 273.703125 285.269531 L 261.78125 285.269531 L 282.023438 189.269531 L 310.863281 189.269531 L 319.601562 241.714844 L 349.832031 189.269531 L 379.921875 189.269531 Z M 359.65625 285.269531 " fill-opacity="1" fill-rule="nonzero"/></g><g clip-path="url(#25cbefc1c2)"><path fill="#000000" d="M 456.164062 285.269531 L 424.359375 285.269531 L 430.742188 255.21875 L 410.691406 255.21875 L 404.308594 285.269531 L 372.523438 285.269531 L 389.488281 204.308594 C 389.921875 202.160156 390.707031 200.148438 391.839844 198.269531 C 392.972656 196.394531 394.386719 194.765625 396.082031 193.386719 C 397.703125 192.035156 399.507812 191.007812 401.492188 190.300781 C 403.476562 189.589844 405.523438 189.25 407.628906 189.269531 L 461.445312 189.269531 C 462.382812 189.195312 463.316406 189.230469 464.246094 189.375 C 465.175781 189.519531 466.078125 189.773438 466.949219 190.128906 C 467.820312 190.488281 468.640625 190.941406 469.40625 191.492188 C 470.171875 192.039062 470.863281 192.671875 471.480469 193.386719 C 472.039062 194.164062 472.496094 195 472.859375 195.886719 C 473.222656 196.777344 473.480469 197.695312 473.632812 198.640625 C 473.785156 199.589844 473.824219 200.542969 473.757812 201.5 C 473.6875 202.457031 473.511719 203.394531 473.222656 204.308594 Z M 422 201.234375 L 413.191406 243.253906 L 433.144531 243.253906 L 442.027344 201.234375 Z M 422 201.234375 " fill-opacity="1" fill-rule="nonzero"/></g><g clip-path="url(#3381a0e6ec)"><path fill="#000000" d="M 561.25 240.34375 C 560.824219 242.484375 560.054688 244.488281 558.9375 246.359375 C 557.820312 248.230469 556.425781 249.859375 554.746094 251.246094 C 553.09375 252.621094 551.253906 253.660156 549.226562 254.371094 C 547.199219 255.078125 545.113281 255.40625 542.96875 255.359375 L 506.234375 255.21875 L 499.96875 285.269531 L 468.089844 285.269531 L 488.328125 189.269531 L 557.105469 189.269531 C 558.042969 189.195312 558.976562 189.230469 559.90625 189.375 C 560.835938 189.519531 561.738281 189.773438 562.609375 190.128906 C 563.480469 190.488281 564.300781 190.941406 565.066406 191.492188 C 565.832031 192.039062 566.523438 192.671875 567.140625 193.386719 C 567.699219 194.164062 568.15625 195 568.519531 195.886719 C 568.882812 196.777344 569.140625 197.695312 569.292969 198.640625 C 569.445312 199.589844 569.484375 200.542969 569.417969 201.5 C 569.347656 202.457031 569.171875 203.394531 568.886719 204.308594 Z M 517.707031 201.234375 L 508.851562 243.253906 L 528.804688 243.253906 L 537.6875 201.234375 Z M 517.707031 201.234375 " fill-opacity="1" fill-rule="nonzero"/></g><g clip-path="url(#409700f4e1)"><path fill="#000000" d="M 674.253906 285.269531 L 642.351562 285.269531 L 648.734375 255.21875 L 628.777344 255.21875 L 622.394531 285.269531 L 590.515625 285.269531 L 607.574219 204.308594 C 607.996094 202.167969 608.765625 200.15625 609.882812 198.28125 C 611 196.40625 612.394531 194.773438 614.074219 193.386719 C 615.710938 192.023438 617.527344 190.992188 619.527344 190.28125 C 621.53125 189.574219 623.59375 189.238281 625.714844 189.269531 L 679.53125 189.269531 C 680.46875 189.195312 681.402344 189.230469 682.332031 189.375 C 683.265625 189.519531 684.164062 189.773438 685.035156 190.128906 C 685.90625 190.488281 686.726562 190.941406 687.492188 191.492188 C 688.257812 192.039062 688.949219 192.671875 689.566406 193.386719 C 690.125 194.164062 690.582031 195 690.945312 195.886719 C 691.308594 196.777344 691.566406 197.695312 691.71875 198.640625 C 691.871094 199.589844 691.910156 200.542969 691.84375 201.5 C 691.773438 202.457031 691.597656 203.394531 691.3125 204.308594 Z M 640.136719 201.234375 L 631.277344 243.253906 L 651.234375 243.253906 L 660.117188 201.234375 Z M 640.136719 201.234375 " fill-opacity="1" fill-rule="nonzero"/></g><g clip-path="url(#a111072d2d)"><path fill="#000000" d="M 766.308594 231.289062 C 767.246094 231.214844 768.183594 231.25 769.117188 231.394531 C 770.046875 231.539062 770.953125 231.789062 771.824219 232.148438 C 772.699219 232.503906 773.519531 232.957031 774.285156 233.507812 C 775.054688 234.058594 775.75 234.691406 776.367188 235.402344 C 776.921875 236.183594 777.378906 237.019531 777.742188 237.90625 C 778.101562 238.796875 778.359375 239.714844 778.507812 240.660156 C 778.65625 241.609375 778.695312 242.5625 778.625 243.519531 C 778.554688 244.476562 778.375 245.410156 778.089844 246.328125 L 773.070312 270.257812 C 772.640625 272.394531 771.867188 274.402344 770.753906 276.277344 C 769.636719 278.152344 768.242188 279.785156 766.566406 281.179688 C 764.929688 282.53125 763.109375 283.5625 761.109375 284.265625 C 759.109375 284.96875 757.046875 285.304688 754.925781 285.269531 L 701.136719 285.269531 C 700.203125 285.351562 699.273438 285.320312 698.347656 285.179688 C 697.421875 285.039062 696.527344 284.789062 695.660156 284.433594 C 694.792969 284.078125 693.980469 283.625 693.222656 283.078125 C 692.460938 282.527344 691.777344 281.894531 691.167969 281.179688 C 690.625 280.394531 690.171875 279.558594 689.8125 278.671875 C 689.453125 277.785156 689.191406 276.867188 689.035156 275.921875 C 688.878906 274.976562 688.828125 274.027344 688.882812 273.070312 C 688.933594 272.117188 689.09375 271.175781 689.355469 270.257812 L 691.996094 257.296875 L 723.875 257.296875 L 720.550781 273.304688 L 740.53125 273.304688 L 746.894531 243.253906 L 710.019531 243.253906 C 709.085938 243.320312 708.15625 243.28125 707.234375 243.132812 C 706.308594 242.988281 705.414062 242.734375 704.546875 242.378906 C 703.679688 242.027344 702.867188 241.578125 702.101562 241.035156 C 701.339844 240.488281 700.648438 239.867188 700.027344 239.164062 C 699.476562 238.378906 699.019531 237.546875 698.65625 236.65625 C 698.296875 235.769531 698.042969 234.851562 697.890625 233.902344 C 697.742188 232.957031 697.703125 232.003906 697.773438 231.046875 C 697.84375 230.089844 698.023438 229.152344 698.308594 228.238281 L 703.304688 204.308594 C 703.726562 202.167969 704.496094 200.15625 705.613281 198.28125 C 706.730469 196.40625 708.128906 194.773438 709.808594 193.386719 C 711.433594 192.03125 713.246094 191 715.238281 190.292969 C 717.230469 189.585938 719.285156 189.246094 721.398438 189.269531 L 775.191406 189.269531 C 776.128906 189.195312 777.058594 189.226562 777.988281 189.367188 C 778.917969 189.511719 779.816406 189.757812 780.6875 190.109375 C 781.558594 190.464844 782.378906 190.914062 783.144531 191.457031 C 783.914062 192.003906 784.605469 192.628906 785.226562 193.335938 C 785.785156 194.109375 786.242188 194.9375 786.605469 195.816406 C 786.96875 196.695312 787.226562 197.605469 787.378906 198.546875 C 787.53125 199.484375 787.570312 200.429688 787.5 201.378906 C 787.433594 202.328125 787.257812 203.257812 786.972656 204.167969 L 784.332031 217.101562 L 752.453125 217.101562 L 755.777344 201.234375 L 735.820312 201.234375 L 729.433594 231.289062 Z M 766.308594 231.289062 " fill-opacity="1" fill-rule="nonzero"/></g><g clip-path="url(#9101cb9f86)"><path fill="#000000" d="M 813.597656 285.269531 L 781.695312 285.269531 L 801.933594 189.269531 L 833.835938 189.269531 Z M 813.597656 285.269531 " fill-opacity="1" fill-rule="nonzero"/></g><g clip-path="url(#f0faa3531c)"><path fill="#000000" d="M 909.257812 285.269531 L 877.355469 285.269531 L 883.808594 255.21875 L 863.78125 255.21875 L 857.398438 285.269531 L 825.519531 285.269531 L 842.554688 204.308594 C 842.980469 202.164062 843.753906 200.15625 844.871094 198.277344 C 845.992188 196.402344 847.394531 194.773438 849.078125 193.386719 C 850.714844 192.023438 852.53125 190.992188 854.53125 190.28125 C 856.535156 189.574219 858.597656 189.238281 860.71875 189.269531 L 914.441406 189.269531 C 915.378906 189.195312 916.316406 189.226562 917.25 189.371094 C 918.183594 189.515625 919.085938 189.765625 919.957031 190.125 C 920.832031 190.480469 921.652344 190.9375 922.421875 191.488281 C 923.1875 192.039062 923.882812 192.671875 924.5 193.386719 C 925.054688 194.167969 925.511719 195 925.875 195.890625 C 926.234375 196.777344 926.492188 197.695312 926.640625 198.644531 C 926.789062 199.59375 926.828125 200.542969 926.757812 201.5 C 926.6875 202.457031 926.507812 203.394531 926.21875 204.308594 Z M 875.140625 201.234375 L 866.28125 243.253906 L 886.164062 243.253906 L 895.121094 201.234375 Z M 875.140625 201.234375 " fill-opacity="1" fill-rule="nonzero"/></g><g clip-path="url(#7a831d09e8)"><path fill="#000000" d="M 493.394531 317.128906 C 493.261719 315.917969 493.371094 314.726562 493.722656 313.558594 C 494.074219 312.390625 494.640625 311.335938 495.421875 310.394531 C 496.464844 309.65625 497.601562 309.121094 498.839844 308.796875 C 500.078125 308.46875 501.335938 308.367188 502.609375 308.496094 L 505.851562 308.496094 C 507.121094 308.375 508.378906 308.453125 509.625 308.738281 C 510.867188 309.019531 512.035156 309.488281 513.125 310.144531 C 513.882812 310.867188 514.445312 311.722656 514.808594 312.703125 C 515.167969 313.683594 515.292969 314.695312 515.183594 315.730469 L 515.183594 316.878906 L 511.941406 316.878906 L 511.941406 316.09375 C 512.027344 315.378906 511.953125 314.679688 511.726562 313.996094 C 511.5 313.3125 511.140625 312.710938 510.644531 312.183594 C 509.085938 311.304688 507.414062 310.949219 505.625 311.121094 L 503.484375 311.121094 C 502.265625 311.042969 501.054688 311.097656 499.847656 311.289062 C 499.132812 311.453125 498.492188 311.769531 497.929688 312.238281 C 497.394531 312.6875 497.039062 313.246094 496.859375 313.917969 C 496.605469 315.171875 496.5 316.4375 496.550781 317.714844 L 496.550781 325.007812 C 496.5 326.285156 496.605469 327.550781 496.859375 328.804688 C 497.039062 329.476562 497.394531 330.035156 497.929688 330.480469 C 498.476562 330.945312 499.09375 331.261719 499.792969 331.429688 C 501.011719 331.667969 502.242188 331.761719 503.484375 331.710938 L 505.625 331.710938 C 507.449219 331.910156 509.152344 331.546875 510.730469 330.621094 C 511.226562 330.03125 511.585938 329.367188 511.804688 328.628906 C 512.027344 327.890625 512.089844 327.140625 511.996094 326.375 C 512.015625 326.132812 512.015625 325.890625 511.996094 325.648438 C 512.011719 325.492188 512.011719 325.332031 511.996094 325.175781 L 515.097656 325.175781 L 515.097656 326.851562 C 515.222656 327.921875 515.113281 328.964844 514.765625 329.988281 C 514.421875 331.007812 513.875 331.910156 513.125 332.6875 C 512.039062 333.34375 510.878906 333.816406 509.636719 334.097656 C 508.398438 334.378906 507.144531 334.457031 505.878906 334.335938 L 502.609375 334.335938 C 501.335938 334.464844 500.078125 334.367188 498.839844 334.039062 C 497.601562 333.710938 496.464844 333.175781 495.421875 332.4375 C 494.640625 331.496094 494.074219 330.441406 493.722656 329.273438 C 493.371094 328.105469 493.261719 326.917969 493.394531 325.703125 Z M 493.394531 317.128906 " fill-opacity="1" fill-rule="nonzero"/></g><path fill="#000000" d="M 525.667969 334.253906 C 524.585938 334.363281 523.515625 334.285156 522.460938 334.019531 C 521.402344 333.757812 520.425781 333.324219 519.523438 332.714844 C 518.847656 331.949219 518.355469 331.078125 518.050781 330.105469 C 517.746094 329.132812 517.65625 328.140625 517.777344 327.128906 L 517.777344 322.996094 C 517.648438 321.984375 517.738281 320.988281 518.042969 320.015625 C 518.347656 319.042969 518.84375 318.171875 519.523438 317.40625 C 520.410156 316.792969 521.375 316.347656 522.425781 316.078125 C 523.472656 315.808594 524.535156 315.730469 525.613281 315.84375 L 526.992188 315.84375 C 528.074219 315.730469 529.140625 315.8125 530.195312 316.078125 C 531.246094 316.347656 532.21875 316.792969 533.109375 317.40625 C 533.796875 318.167969 534.292969 319.039062 534.597656 320.011719 C 534.902344 320.988281 534.988281 321.984375 534.859375 322.996094 L 534.859375 327.242188 C 534.988281 328.25 534.902344 329.242188 534.601562 330.21875 C 534.300781 331.191406 533.8125 332.0625 533.136719 332.828125 C 532.242188 333.429688 531.265625 333.863281 530.214844 334.128906 C 529.164062 334.390625 528.101562 334.472656 527.019531 334.363281 Z M 531.871094 326.65625 L 531.871094 323.582031 C 532.070312 322.046875 531.757812 320.625 530.9375 319.308594 C 529.738281 318.523438 528.421875 318.214844 526.992188 318.386719 L 525.613281 318.386719 C 524.15625 318.195312 522.8125 318.492188 521.582031 319.28125 C 520.832031 320.625 520.570312 322.058594 520.792969 323.582031 L 520.792969 326.65625 C 520.617188 328.15625 520.925781 329.554688 521.722656 330.84375 C 522.902344 331.640625 524.199219 331.945312 525.613281 331.765625 L 526.992188 331.765625 C 528.414062 331.9375 529.71875 331.628906 530.910156 330.84375 C 531.726562 329.558594 532.046875 328.164062 531.871094 326.65625 Z M 531.871094 326.65625 " fill-opacity="1" fill-rule="nonzero"/><path fill="#000000" d="M 535.675781 334.03125 L 543.117188 324.503906 L 536.632812 316.125 L 539.902344 316.125 L 544.636719 322.464844 L 549.347656 316.207031 L 552.585938 316.207031 L 546.1875 324.585938 L 553.628906 334.113281 L 550.359375 334.113281 L 544.722656 326.597656 L 539.085938 334.113281 Z M 535.675781 334.03125 " fill-opacity="1" fill-rule="nonzero"/><g clip-path="url(#f5b9792017)"><path fill="#000000" d="M 557.578125 312.324219 L 557.578125 308.804688 L 560.621094 308.804688 L 560.621094 313.050781 C 560.675781 313.828125 560.410156 314.480469 559.832031 315.003906 C 559.171875 315.53125 558.421875 315.761719 557.578125 315.703125 L 557.578125 314.222656 C 557.9375 314.230469 558.257812 314.121094 558.535156 313.886719 C 558.757812 313.652344 558.851562 313.371094 558.816406 313.050781 L 558.816406 312.324219 Z M 557.578125 312.324219 " fill-opacity="1" fill-rule="nonzero"/></g><path fill="#000000" d="M 566.203125 328.722656 L 569.019531 328.722656 L 569.019531 329.140625 C 568.972656 329.589844 569.046875 330.019531 569.246094 330.429688 C 569.441406 330.835938 569.734375 331.160156 570.121094 331.402344 C 571.570312 331.917969 573.066406 332.125 574.601562 332.019531 C 576.207031 332.183594 577.757812 331.96875 579.253906 331.375 C 579.585938 331.070312 579.828125 330.703125 579.984375 330.277344 C 580.136719 329.855469 580.183594 329.421875 580.128906 328.972656 C 580.246094 328.085938 580.011719 327.304688 579.421875 326.625 C 578.292969 326.082031 577.097656 325.84375 575.84375 325.902344 L 573.023438 325.902344 C 571.449219 325.917969 569.910156 325.703125 568.402344 325.257812 C 567.699219 324.9375 567.171875 324.433594 566.824219 323.75 C 566.441406 322.855469 566.28125 321.925781 566.34375 320.957031 C 566.230469 320.175781 566.324219 319.425781 566.621094 318.695312 C 566.917969 317.964844 567.378906 317.359375 568.007812 316.878906 C 570.347656 315.960938 572.773438 315.617188 575.277344 315.84375 C 577.339844 315.664062 579.3125 316 581.199219 316.847656 C 581.75 317.253906 582.167969 317.765625 582.445312 318.390625 C 582.71875 319.015625 582.820312 319.664062 582.75 320.339844 L 579.929688 320.339844 L 579.929688 320.285156 C 579.953125 319.917969 579.859375 319.585938 579.648438 319.28125 C 579.4375 318.980469 579.15625 318.773438 578.800781 318.664062 C 577.34375 318.273438 575.859375 318.125 574.347656 318.21875 C 572.929688 318.09375 571.546875 318.269531 570.203125 318.75 C 569.867188 319.023438 569.621094 319.363281 569.46875 319.765625 C 569.3125 320.167969 569.265625 320.585938 569.332031 321.011719 C 569.308594 321.503906 569.363281 321.988281 569.5 322.464844 C 569.613281 322.753906 569.8125 322.96875 570.09375 323.105469 C 571.351562 323.492188 572.636719 323.660156 573.953125 323.609375 L 575.136719 323.609375 C 576.773438 323.609375 577.957031 323.75 578.972656 323.832031 C 579.65625 323.871094 580.324219 324 580.972656 324.222656 C 581.765625 324.535156 582.378906 325.054688 582.804688 325.789062 C 583.238281 326.730469 583.425781 327.71875 583.367188 328.75 C 583.414062 329.777344 583.234375 330.765625 582.832031 331.710938 C 582.351562 332.566406 581.664062 333.207031 580.777344 333.636719 C 580.121094 333.9375 579.4375 334.113281 578.71875 334.167969 C 577.394531 334.285156 576.070312 334.332031 574.742188 334.308594 C 572.347656 334.519531 570.046875 334.15625 567.835938 333.21875 C 567.226562 332.75 566.773438 332.160156 566.476562 331.453125 C 566.183594 330.746094 566.082031 330.011719 566.175781 329.253906 Z M 566.203125 328.722656 " fill-opacity="1" fill-rule="nonzero"/><g clip-path="url(#adcf2cc032)"><path fill="#000000" d="M 599.660156 334.03125 L 599.660156 308.886719 L 612.542969 308.886719 C 614.648438 308.671875 616.621094 309.078125 618.460938 310.117188 C 619.042969 310.824219 619.460938 311.617188 619.71875 312.496094 C 619.972656 313.375 620.042969 314.265625 619.929688 315.171875 C 620.039062 316.605469 619.792969 317.972656 619.195312 319.28125 C 618.589844 320.167969 617.753906 320.707031 616.6875 320.898438 C 617.953125 321.09375 618.96875 321.699219 619.730469 322.714844 C 620.449219 324.085938 620.738281 325.539062 620.605469 327.074219 C 620.738281 328.089844 620.648438 329.089844 620.332031 330.066406 C 620.015625 331.042969 619.503906 331.910156 618.800781 332.660156 C 616.539062 333.902344 614.125 334.386719 611.554688 334.113281 Z M 602.648438 319.671875 L 612.65625 319.671875 C 613.847656 319.796875 614.9375 319.527344 615.925781 318.859375 C 616.660156 317.804688 616.941406 316.640625 616.769531 315.367188 C 616.769531 313.636719 616.460938 312.574219 615.871094 312.101562 C 614.398438 311.515625 612.878906 311.304688 611.304688 311.457031 L 602.648438 311.457031 Z M 602.648438 331.347656 L 612.769531 331.347656 C 614.078125 331.480469 615.308594 331.230469 616.460938 330.59375 C 617.082031 330.0625 617.417969 328.75 617.417969 326.570312 C 617.511719 325.933594 617.464844 325.308594 617.277344 324.695312 C 617.089844 324.078125 616.78125 323.53125 616.347656 323.050781 C 614.585938 322.320312 612.753906 322.050781 610.851562 322.242188 L 602.648438 322.242188 Z M 602.648438 331.347656 " fill-opacity="1" fill-rule="nonzero"/></g><path fill="#000000" d="M 637.519531 332.15625 C 637.003906 332.960938 636.289062 333.5 635.375 333.777344 C 634.058594 334.152344 632.714844 334.308594 631.34375 334.253906 C 629.171875 334.464844 627.113281 334.074219 625.171875 333.078125 C 624.597656 332.488281 624.171875 331.804688 623.902344 331.027344 C 623.632812 330.253906 623.539062 329.457031 623.621094 328.636719 C 623.582031 327.632812 623.703125 326.644531 623.988281 325.675781 C 624.21875 324.996094 624.613281 324.429688 625.171875 323.972656 C 625.804688 323.554688 626.5 323.292969 627.257812 323.191406 C 628.566406 323.019531 629.882812 322.945312 631.203125 322.96875 C 632.574219 322.929688 633.925781 323.058594 635.261719 323.359375 C 636.113281 323.578125 636.820312 324.023438 637.375 324.699219 L 637.375 321.597656 C 637.375 320.144531 637.066406 319.195312 636.445312 318.804688 C 634.9375 318.226562 633.378906 318.011719 631.765625 318.164062 C 630.523438 318.054688 629.320312 318.230469 628.160156 318.691406 C 627.839844 318.90625 627.59375 319.183594 627.425781 319.53125 C 627.261719 319.875 627.195312 320.238281 627.230469 320.621094 L 624.410156 320.621094 L 624.410156 320.171875 C 624.324219 319.53125 624.414062 318.914062 624.675781 318.320312 C 624.941406 317.730469 625.339844 317.246094 625.875 316.878906 C 627.671875 316.070312 629.550781 315.746094 631.511719 315.898438 C 633.097656 315.878906 634.675781 315.953125 636.25 316.125 C 637.105469 316.207031 637.90625 316.46875 638.644531 316.90625 C 639.210938 317.28125 639.617188 317.78125 639.855469 318.414062 C 640.136719 319.421875 640.25 320.445312 640.195312 321.488281 L 640.195312 334.03125 L 637.574219 334.03125 Z M 637.375 329.363281 L 637.375 327.605469 C 637.367188 327.171875 637.226562 326.78125 636.960938 326.4375 C 636.699219 326.09375 636.355469 325.859375 635.9375 325.734375 C 634.492188 325.316406 633.015625 325.15625 631.511719 325.257812 C 630.191406 325.132812 628.933594 325.355469 627.738281 325.929688 C 627.375 326.234375 627.109375 326.609375 626.9375 327.050781 C 626.769531 327.492188 626.714844 327.945312 626.777344 328.414062 C 626.703125 328.933594 626.757812 329.441406 626.9375 329.9375 C 627.117188 330.429688 627.402344 330.855469 627.792969 331.207031 C 629.082031 331.808594 630.433594 332.042969 631.851562 331.90625 C 633.277344 331.96875 634.667969 331.773438 636.023438 331.320312 C 636.871094 330.84375 637.375 330.230469 637.375 329.476562 Z M 637.375 329.363281 " fill-opacity="1" fill-rule="nonzero"/><path fill="#000000" d="M 643.917969 334.03125 L 643.917969 331.234375 L 656.007812 318.722656 L 644.480469 318.722656 L 644.480469 316.179688 L 659.703125 316.179688 L 659.703125 318.664062 L 647.046875 331.628906 L 659.703125 331.628906 L 659.703125 334.03125 Z M 643.917969 334.03125 " fill-opacity="1" fill-rule="nonzero"/><path fill="#000000" d="M 675.9375 332.15625 C 675.429688 332.949219 674.722656 333.488281 673.824219 333.777344 C 672.496094 334.148438 671.144531 334.308594 669.765625 334.253906 C 667.597656 334.464844 665.550781 334.074219 663.621094 333.078125 C 663.023438 332.5 662.589844 331.820312 662.3125 331.039062 C 662.035156 330.261719 661.945312 329.460938 662.039062 328.636719 C 662.050781 327.628906 662.210938 326.640625 662.519531 325.675781 C 662.75 324.988281 663.15625 324.421875 663.730469 323.972656 C 664.355469 323.546875 665.039062 323.285156 665.789062 323.191406 C 667.101562 323.023438 668.414062 322.949219 669.734375 322.96875 C 671.105469 322.929688 672.457031 323.058594 673.796875 323.359375 C 674.648438 323.578125 675.351562 324.023438 675.910156 324.699219 L 675.910156 321.597656 C 675.910156 320.144531 675.597656 319.195312 674.980469 318.804688 C 673.472656 318.222656 671.910156 318.007812 670.300781 318.164062 C 669.054688 318.054688 667.851562 318.230469 666.691406 318.691406 C 666.371094 318.90625 666.128906 319.183594 665.960938 319.53125 C 665.792969 319.875 665.726562 320.238281 665.761719 320.621094 L 662.941406 320.621094 L 662.941406 320.171875 C 662.855469 319.53125 662.945312 318.914062 663.210938 318.320312 C 663.472656 317.730469 663.871094 317.246094 664.410156 316.878906 C 666.203125 316.078125 668.082031 315.753906 670.046875 315.898438 C 671.621094 315.878906 673.1875 315.953125 674.753906 316.125 C 675.609375 316.207031 676.410156 316.46875 677.148438 316.90625 C 677.726562 317.273438 678.128906 317.777344 678.363281 318.414062 C 678.667969 319.417969 678.789062 320.441406 678.726562 321.488281 L 678.726562 334.03125 L 676.050781 334.03125 Z M 675.796875 329.363281 L 675.796875 327.605469 C 675.785156 327.171875 675.648438 326.78125 675.382812 326.4375 C 675.117188 326.09375 674.777344 325.859375 674.359375 325.734375 C 672.886719 325.300781 671.382812 325.140625 669.847656 325.257812 C 668.515625 325.128906 667.25 325.351562 666.042969 325.929688 C 665.683594 326.234375 665.417969 326.609375 665.246094 327.050781 C 665.078125 327.492188 665.023438 327.945312 665.085938 328.414062 C 665.011719 328.933594 665.066406 329.441406 665.242188 329.9375 C 665.421875 330.429688 665.707031 330.855469 666.101562 331.207031 C 667.386719 331.808594 668.742188 332.042969 670.160156 331.90625 C 671.585938 331.972656 672.976562 331.777344 674.332031 331.320312 C 675.316406 330.84375 675.796875 330.230469 675.796875 329.476562 Z M 675.796875 329.363281 " fill-opacity="1" fill-rule="nonzero"/><path fill="#000000" d="M 683.097656 334.03125 L 683.097656 316.179688 L 685.917969 316.179688 L 685.917969 318.636719 C 686.304688 317.703125 686.964844 317.023438 687.890625 316.597656 C 688.984375 316.125 690.132812 315.910156 691.328125 315.957031 C 692.144531 315.875 692.945312 315.953125 693.726562 316.195312 C 694.511719 316.4375 695.214844 316.824219 695.839844 317.351562 C 696.347656 318.105469 696.707031 318.917969 696.921875 319.796875 C 697.132812 320.675781 697.1875 321.566406 697.078125 322.464844 L 694.257812 322.464844 L 694.257812 321.960938 C 694.359375 320.941406 694.117188 320.011719 693.527344 319.167969 C 692.6875 318.550781 691.746094 318.296875 690.707031 318.414062 C 690.042969 318.335938 689.390625 318.410156 688.757812 318.628906 C 688.125 318.851562 687.570312 319.199219 687.101562 319.671875 C 686.257812 320.90625 685.898438 322.265625 686.027344 323.75 L 686.027344 334.03125 Z M 683.097656 334.03125 " fill-opacity="1" fill-rule="nonzero"/><path fill="#000000" d="M 696.121094 334.03125 L 696.121094 330.34375 L 699.390625 330.34375 L 699.390625 334.785156 C 699.417969 335.605469 699.136719 336.304688 698.542969 336.878906 C 697.828125 337.414062 697.019531 337.65625 696.121094 337.605469 L 696.121094 336.039062 C 696.515625 336.027344 696.871094 335.90625 697.191406 335.675781 C 697.429688 335.425781 697.535156 335.128906 697.5 334.785156 L 697.5 334.03125 Z M 696.121094 334.03125 " fill-opacity="1" fill-rule="nonzero"/><g clip-path="url(#9b03cba662)"><path fill="#000000" d="M 717.738281 334.03125 L 717.738281 308.886719 L 730.621094 308.886719 C 732.730469 308.660156 734.703125 309.070312 736.542969 310.117188 C 737.128906 310.820312 737.554688 311.613281 737.808594 312.492188 C 738.0625 313.371094 738.128906 314.265625 738.007812 315.171875 C 738.125 316.601562 737.890625 317.972656 737.300781 319.28125 C 736.683594 320.167969 735.839844 320.710938 734.765625 320.898438 C 736.035156 321.101562 737.058594 321.703125 737.839844 322.714844 C 738.488281 324.070312 738.75 325.496094 738.628906 326.988281 C 738.761719 328.007812 738.671875 329.003906 738.355469 329.984375 C 738.039062 330.960938 737.527344 331.824219 736.824219 332.578125 C 734.574219 333.820312 732.167969 334.304688 729.605469 334.03125 Z M 720.757812 319.671875 L 730.734375 319.671875 C 731.925781 319.804688 733.015625 319.535156 734.003906 318.859375 C 734.738281 317.804688 735.019531 316.640625 734.851562 315.367188 C 734.851562 313.636719 734.539062 312.574219 733.949219 312.101562 C 732.488281 311.519531 730.976562 311.304688 729.410156 311.457031 L 720.757812 311.457031 Z M 720.757812 331.347656 L 730.847656 331.347656 C 732.160156 331.480469 733.390625 331.230469 734.539062 330.59375 C 735.1875 330.0625 735.5 328.75 735.5 326.570312 C 735.589844 325.933594 735.542969 325.308594 735.355469 324.695312 C 735.167969 324.078125 734.859375 323.53125 734.425781 323.050781 C 732.621094 322.292969 730.738281 322.023438 728.789062 322.242188 L 720.617188 322.242188 Z M 720.757812 331.347656 " fill-opacity="1" fill-rule="nonzero"/></g><path fill="#000000" d="M 755.539062 332.15625 C 755.03125 332.949219 754.328125 333.488281 753.425781 333.777344 C 752.097656 334.148438 750.746094 334.308594 749.367188 334.253906 C 747.203125 334.464844 745.152344 334.070312 743.222656 333.078125 C 742.632812 332.496094 742.203125 331.816406 741.929688 331.035156 C 741.65625 330.257812 741.570312 329.457031 741.671875 328.636719 C 741.636719 327.632812 741.75 326.648438 742.011719 325.675781 C 742.242188 324.988281 742.644531 324.421875 743.222656 323.972656 C 743.847656 323.550781 744.53125 323.292969 745.28125 323.191406 C 746.589844 323.023438 747.90625 322.949219 749.226562 322.96875 C 750.59375 322.929688 751.949219 323.058594 753.285156 323.359375 C 754.191406 323.550781 754.941406 323.996094 755.539062 324.699219 L 755.539062 321.597656 C 755.539062 320.144531 755.230469 319.195312 754.609375 318.804688 C 753.09375 318.207031 751.527344 317.984375 749.902344 318.132812 C 748.65625 318.03125 747.457031 318.207031 746.292969 318.664062 C 745.972656 318.878906 745.730469 319.15625 745.5625 319.503906 C 745.394531 319.847656 745.328125 320.210938 745.363281 320.59375 L 742.546875 320.59375 L 742.546875 320.171875 C 742.464844 319.527344 742.5625 318.90625 742.835938 318.3125 C 743.109375 317.71875 743.519531 317.242188 744.066406 316.878906 C 745.863281 316.078125 747.742188 315.753906 749.707031 315.898438 C 751.277344 315.878906 752.847656 315.953125 754.414062 316.125 C 755.273438 316.203125 756.070312 316.464844 756.808594 316.90625 C 757.382812 317.273438 757.789062 317.777344 758.019531 318.414062 C 758.324219 319.4375 758.4375 320.480469 758.359375 321.542969 L 758.359375 334.03125 L 755.710938 334.03125 Z M 755.539062 329.363281 L 755.539062 327.605469 C 755.53125 327.175781 755.398438 326.789062 755.136719 326.445312 C 754.878906 326.101562 754.542969 325.863281 754.128906 325.734375 C 752.621094 325.292969 751.078125 325.136719 749.507812 325.257812 C 748.175781 325.136719 746.910156 325.359375 745.703125 325.929688 C 745.339844 326.234375 745.074219 326.609375 744.90625 327.050781 C 744.734375 327.492188 744.683594 327.945312 744.746094 328.414062 C 744.671875 328.933594 744.722656 329.441406 744.902344 329.9375 C 745.082031 330.429688 745.367188 330.855469 745.757812 331.207031 C 747.085938 331.785156 748.464844 331.980469 749.902344 331.792969 C 751.339844 331.855469 752.738281 331.660156 754.101562 331.207031 C 754.976562 330.84375 755.539062 330.230469 755.539062 329.476562 Z M 755.539062 329.363281 " fill-opacity="1" fill-rule="nonzero"/><path fill="#000000" d="M 762.8125 334.03125 L 762.8125 316.179688 L 765.632812 316.179688 L 765.632812 318.636719 C 766.132812 317.6875 766.886719 317.007812 767.886719 316.597656 C 769.226562 316.125 770.609375 315.910156 772.03125 315.957031 C 772.984375 315.863281 773.921875 315.933594 774.847656 316.175781 C 775.773438 316.414062 776.628906 316.808594 777.414062 317.351562 C 778.011719 318.0625 778.441406 318.863281 778.703125 319.753906 C 778.960938 320.644531 779.03125 321.546875 778.90625 322.464844 L 778.90625 334.03125 L 776.089844 334.03125 L 776.089844 322.855469 C 776.25 321.515625 775.953125 320.285156 775.1875 319.167969 C 774.136719 318.429688 772.972656 318.128906 771.691406 318.273438 C 770.863281 318.214844 770.054688 318.308594 769.261719 318.550781 C 768.472656 318.789062 767.75 319.164062 767.097656 319.671875 C 766.585938 320.21875 766.207031 320.84375 765.960938 321.550781 C 765.714844 322.253906 765.625 322.976562 765.6875 323.722656 L 765.6875 334.03125 Z M 762.8125 334.03125 " fill-opacity="1" fill-rule="nonzero"/><g clip-path="url(#af84c15333)"><path fill="#000000" d="M 799.738281 316.179688 L 799.738281 333.835938 C 799.859375 334.839844 799.777344 335.832031 799.480469 336.800781 C 799.1875 337.773438 798.710938 338.648438 798.046875 339.421875 C 797.183594 340.023438 796.238281 340.457031 795.214844 340.722656 C 794.191406 340.988281 793.152344 341.066406 792.101562 340.957031 L 790.746094 340.957031 C 788.734375 341.117188 786.855469 340.699219 785.109375 339.699219 C 784.46875 339.183594 783.972656 338.558594 783.621094 337.816406 C 783.269531 337.078125 783.097656 336.300781 783.109375 335.480469 L 785.925781 335.480469 C 785.957031 336.460938 786.351562 337.261719 787.109375 337.882812 C 788.21875 338.441406 789.394531 338.664062 790.632812 338.554688 L 792.183594 338.554688 C 793.484375 338.652344 794.707031 338.390625 795.847656 337.773438 C 796.238281 337.480469 796.527344 337.113281 796.722656 336.671875 C 796.917969 336.230469 796.992188 335.765625 796.949219 335.285156 L 796.949219 331.488281 C 796.4375 332.445312 795.683594 333.152344 794.691406 333.609375 C 793.453125 334.105469 792.167969 334.320312 790.832031 334.253906 C 789.785156 334.363281 788.753906 334.285156 787.738281 334.015625 C 786.722656 333.746094 785.789062 333.304688 784.941406 332.6875 C 784.296875 331.933594 783.828125 331.082031 783.535156 330.136719 C 783.242188 329.191406 783.144531 328.226562 783.25 327.242188 L 783.25 322.996094 C 783.128906 321.988281 783.21875 321 783.511719 320.027344 C 783.804688 319.058594 784.28125 318.183594 784.941406 317.40625 C 785.796875 316.804688 786.730469 316.371094 787.742188 316.101562 C 788.757812 315.832031 789.785156 315.746094 790.832031 315.84375 C 792.230469 315.789062 793.574219 316.03125 794.863281 316.570312 C 795.878906 317.066406 796.609375 317.832031 797.0625 318.859375 L 797.0625 316.066406 Z M 796.917969 326.570312 L 796.917969 323.777344 C 796.992188 323.015625 796.894531 322.277344 796.632812 321.558594 C 796.375 320.839844 795.96875 320.210938 795.425781 319.671875 C 794.773438 319.179688 794.050781 318.824219 793.265625 318.601562 C 792.476562 318.382812 791.675781 318.308594 790.859375 318.386719 C 789.472656 318.234375 788.203125 318.550781 787.054688 319.335938 C 786.222656 320.65625 785.902344 322.089844 786.097656 323.636719 L 786.097656 326.65625 C 785.921875 328.164062 786.242188 329.558594 787.054688 330.84375 C 788.199219 331.644531 789.46875 331.960938 790.859375 331.792969 C 792.542969 331.945312 794.0625 331.527344 795.425781 330.539062 C 795.9375 330.007812 796.320312 329.398438 796.570312 328.707031 C 796.820312 328.015625 796.917969 327.304688 796.863281 326.570312 Z M 796.917969 326.570312 " fill-opacity="1" fill-rule="nonzero"/></g><g clip-path="url(#54d62edfc8)"><path fill="#000000" d="M 804.390625 308.886719 L 807.207031 308.886719 L 807.207031 334.03125 L 804.390625 334.03125 Z M 804.390625 308.886719 " fill-opacity="1" fill-rule="nonzero"/></g><path fill="#000000" d="M 824.855469 332.15625 C 824.351562 332.957031 823.648438 333.496094 822.738281 333.777344 C 821.414062 334.152344 820.058594 334.308594 818.679688 334.253906 C 816.515625 334.464844 814.46875 334.070312 812.535156 333.078125 C 811.945312 332.496094 811.515625 331.816406 811.242188 331.035156 C 810.972656 330.257812 810.886719 329.457031 810.984375 328.636719 C 810.945312 327.632812 811.066406 326.644531 811.351562 325.675781 C 811.5625 324.980469 811.957031 324.414062 812.535156 323.972656 C 813.167969 323.546875 813.863281 323.289062 814.621094 323.191406 C 815.921875 323.023438 817.226562 322.949219 818.539062 322.96875 C 819.910156 322.929688 821.261719 323.058594 822.597656 323.359375 C 823.460938 323.5625 824.164062 324.011719 824.714844 324.699219 L 824.714844 321.597656 C 824.714844 320.144531 824.402344 319.195312 823.78125 318.804688 C 822.285156 318.226562 820.734375 318.011719 819.132812 318.164062 C 817.886719 318.050781 816.683594 318.230469 815.523438 318.691406 C 815.203125 318.90625 814.957031 319.183594 814.792969 319.53125 C 814.625 319.875 814.558594 320.238281 814.59375 320.621094 L 811.773438 320.621094 L 811.773438 320.171875 C 811.703125 319.523438 811.808594 318.902344 812.085938 318.3125 C 812.367188 317.71875 812.777344 317.242188 813.324219 316.878906 C 815.121094 316.082031 817 315.753906 818.960938 315.898438 C 820.546875 315.878906 822.125 315.953125 823.699219 316.125 C 824.523438 316.214844 825.292969 316.464844 826.007812 316.878906 C 826.566406 317.257812 826.972656 317.761719 827.222656 318.386719 C 827.5 319.390625 827.613281 320.417969 827.558594 321.457031 L 827.558594 334.03125 L 824.910156 334.03125 Z M 824.855469 329.363281 L 824.855469 327.605469 C 824.84375 327.175781 824.710938 326.789062 824.453125 326.445312 C 824.191406 326.101562 823.855469 325.863281 823.445312 325.734375 C 821.914062 325.285156 820.355469 325.125 818.765625 325.257812 C 817.433594 325.136719 816.167969 325.359375 814.960938 325.929688 C 814.597656 326.234375 814.332031 326.609375 814.164062 327.050781 C 813.992188 327.492188 813.9375 327.945312 814 328.414062 C 813.929688 328.933594 813.980469 329.441406 814.160156 329.9375 C 814.339844 330.429688 814.625 330.855469 815.015625 331.207031 C 816.304688 331.808594 817.65625 332.042969 819.074219 331.90625 C 820.488281 331.921875 821.863281 331.6875 823.191406 331.207031 C 824.234375 330.84375 824.714844 330.230469 824.714844 329.476562 Z M 824.855469 329.363281 " fill-opacity="1" fill-rule="nonzero"/><g clip-path="url(#01cf7c0237)"><path fill="#000000" d="M 845.09375 331.292969 C 844.671875 332.347656 843.945312 333.128906 842.921875 333.636719 C 841.640625 334.167969 840.308594 334.402344 838.917969 334.335938 C 837.871094 334.441406 836.835938 334.359375 835.816406 334.089844 C 834.796875 333.820312 833.859375 333.382812 833 332.773438 C 832.347656 332.019531 831.871094 331.171875 831.570312 330.226562 C 831.273438 329.277344 831.175781 328.3125 831.28125 327.324219 L 831.28125 322.996094 C 831.171875 322.007812 831.269531 321.042969 831.570312 320.09375 C 831.867188 319.148438 832.34375 318.296875 833 317.546875 C 833.855469 316.933594 834.792969 316.488281 835.8125 316.214844 C 836.832031 315.941406 837.867188 315.855469 838.917969 315.957031 C 840.242188 315.90625 841.519531 316.121094 842.753906 316.597656 C 843.722656 317.070312 844.464844 317.78125 844.980469 318.722656 L 844.980469 308.804688 L 847.800781 308.804688 L 847.800781 333.945312 L 844.980469 333.945312 Z M 845.09375 326.570312 L 845.09375 323.777344 C 845.15625 323.011719 845.054688 322.269531 844.78125 321.550781 C 844.511719 320.832031 844.097656 320.207031 843.542969 319.671875 C 842.894531 319.183594 842.179688 318.828125 841.394531 318.605469 C 840.613281 318.386719 839.816406 318.3125 839.003906 318.386719 C 837.621094 318.214844 836.363281 318.53125 835.226562 319.335938 C 834.394531 320.65625 834.074219 322.089844 834.269531 323.636719 L 834.269531 326.65625 C 834.105469 328.160156 834.425781 329.554688 835.226562 330.84375 C 836.371094 331.609375 837.632812 331.917969 839.003906 331.765625 C 840.675781 331.914062 842.191406 331.496094 843.542969 330.507812 C 844.050781 329.984375 844.433594 329.378906 844.683594 328.691406 C 844.933594 328.003906 845.03125 327.296875 844.980469 326.570312 Z M 845.09375 326.570312 " fill-opacity="1" fill-rule="nonzero"/></g><path fill="#000000" d="M 859.636719 334.253906 C 858.558594 334.359375 857.492188 334.28125 856.441406 334.019531 C 855.390625 333.753906 854.417969 333.320312 853.519531 332.714844 C 852.839844 331.953125 852.347656 331.082031 852.042969 330.109375 C 851.738281 329.136719 851.648438 328.140625 851.773438 327.128906 L 851.773438 322.996094 C 851.644531 321.984375 851.730469 320.992188 852.027344 320.019531 C 852.328125 319.046875 852.816406 318.175781 853.492188 317.40625 C 854.386719 316.792969 855.359375 316.351562 856.410156 316.082031 C 857.460938 315.8125 858.527344 315.734375 859.609375 315.84375 L 860.960938 315.84375 C 862.046875 315.730469 863.121094 315.808594 864.175781 316.078125 C 865.234375 316.347656 866.210938 316.789062 867.109375 317.40625 C 867.789062 318.171875 868.28125 319.042969 868.585938 320.015625 C 868.890625 320.988281 868.980469 321.984375 868.855469 322.996094 L 868.855469 325.789062 L 854.761719 325.789062 C 854.746094 325.992188 854.746094 326.199219 854.761719 326.402344 C 854.746094 326.710938 854.746094 327.019531 854.761719 327.324219 C 854.632812 328.617188 854.953125 329.792969 855.71875 330.84375 C 856.894531 331.648438 858.191406 331.964844 859.609375 331.792969 L 860.960938 331.792969 C 862.25 331.90625 863.472656 331.671875 864.628906 331.097656 C 864.996094 330.8125 865.285156 330.460938 865.492188 330.042969 C 865.699219 329.625 865.808594 329.1875 865.8125 328.722656 L 868.828125 328.722656 C 868.824219 329.535156 868.640625 330.308594 868.28125 331.039062 C 867.917969 331.769531 867.414062 332.382812 866.769531 332.882812 C 865.019531 333.875 863.140625 334.304688 861.132812 334.167969 Z M 854.789062 323.386719 L 865.867188 323.386719 L 865.867188 322.6875 C 865.941406 322.078125 865.890625 321.476562 865.71875 320.886719 C 865.550781 320.292969 865.269531 319.757812 864.878906 319.28125 C 863.683594 318.519531 862.375 318.222656 860.960938 318.386719 L 859.609375 318.386719 C 858.210938 318.203125 856.921875 318.503906 855.746094 319.28125 C 854.953125 320.285156 854.632812 321.421875 854.789062 322.6875 Z M 854.789062 323.386719 " fill-opacity="1" fill-rule="nonzero"/><path fill="#000000" d="M 871.984375 328.722656 L 874.804688 328.722656 L 874.804688 329.140625 C 874.753906 329.59375 874.828125 330.027344 875.035156 330.433594 C 875.238281 330.84375 875.535156 331.167969 875.929688 331.402344 C 877.378906 331.925781 878.875 332.128906 880.414062 332.019531 C 882.0625 332.199219 883.660156 331.984375 885.203125 331.375 C 885.535156 331.070312 885.78125 330.703125 885.933594 330.277344 C 886.089844 329.855469 886.136719 329.421875 886.078125 328.972656 C 886.195312 328.082031 885.949219 327.296875 885.34375 326.625 C 884.214844 326.082031 883.019531 325.84375 881.765625 325.902344 L 878.945312 325.902344 C 877.324219 325.929688 875.738281 325.714844 874.183594 325.257812 C 873.480469 324.9375 872.953125 324.433594 872.605469 323.75 C 872.238281 322.851562 872.078125 321.921875 872.125 320.957031 C 872.039062 320.164062 872.15625 319.40625 872.476562 318.679688 C 872.800781 317.949219 873.285156 317.351562 873.929688 316.878906 C 876.28125 315.960938 878.714844 315.617188 881.230469 315.84375 C 883.292969 315.667969 885.265625 316.003906 887.148438 316.847656 C 887.699219 317.257812 888.109375 317.773438 888.386719 318.394531 C 888.664062 319.015625 888.765625 319.664062 888.699219 320.339844 L 885.878906 320.339844 L 885.878906 320.285156 C 885.898438 319.921875 885.804688 319.585938 885.59375 319.285156 C 885.382812 318.984375 885.105469 318.777344 884.753906 318.664062 C 883.285156 318.277344 881.789062 318.128906 880.269531 318.21875 C 878.859375 318.09375 877.488281 318.269531 876.15625 318.75 C 875.816406 319.023438 875.566406 319.359375 875.40625 319.761719 C 875.246094 320.167969 875.195312 320.582031 875.253906 321.011719 C 875.226562 321.515625 875.285156 322.007812 875.421875 322.492188 C 875.535156 322.78125 875.734375 322.996094 876.015625 323.136719 C 877.273438 323.515625 878.5625 323.683594 879.875 323.636719 L 881.0625 323.636719 C 882.695312 323.636719 883.878906 323.777344 884.894531 323.859375 C 885.578125 323.898438 886.246094 324.027344 886.894531 324.253906 C 887.703125 324.554688 888.324219 325.074219 888.757812 325.816406 C 889.175781 326.761719 889.355469 327.746094 889.292969 328.777344 C 889.351562 329.808594 889.171875 330.792969 888.757812 331.738281 C 888.289062 332.53125 887.640625 333.136719 886.8125 333.554688 C 886.15625 333.851562 885.472656 334.03125 884.753906 334.085938 C 883.429688 334.203125 882.105469 334.25 880.777344 334.226562 C 878.394531 334.441406 876.101562 334.078125 873.902344 333.136719 C 873.285156 332.667969 872.828125 332.082031 872.527344 331.375 C 872.226562 330.667969 872.121094 329.929688 872.210938 329.167969 Z M 871.984375 328.722656 " fill-opacity="1" fill-rule="nonzero"/><g clip-path="url(#dcaaa96927)"><path fill="#000000" d="M 893.660156 334.03125 L 893.660156 308.886719 L 896.480469 308.886719 L 896.480469 318.636719 C 896.984375 317.6875 897.734375 317.007812 898.734375 316.597656 C 900.074219 316.125 901.457031 315.910156 902.878906 315.957031 C 903.832031 315.863281 904.769531 315.933594 905.695312 316.175781 C 906.621094 316.414062 907.476562 316.808594 908.261719 317.351562 C 908.839844 318.070312 909.25 318.875 909.492188 319.765625 C 909.730469 320.65625 909.78125 321.554688 909.644531 322.464844 L 909.644531 334.03125 L 906.824219 334.03125 L 906.824219 322.855469 C 906.988281 321.515625 906.6875 320.285156 905.921875 319.167969 C 904.871094 318.429688 903.707031 318.128906 902.425781 318.273438 C 900.761719 318.144531 899.257812 318.570312 897.917969 319.558594 C 897.402344 320.101562 897.019531 320.730469 896.773438 321.433594 C 896.527344 322.140625 896.4375 322.867188 896.507812 323.609375 L 896.507812 334.03125 Z M 893.660156 334.03125 " fill-opacity="1" fill-rule="nonzero"/></g><g clip-path="url(#b513888cf3)"><path fill="#000000" d="M 273.078125 353.472656 L 301.011719 353.472656 L 299.675781 359.84375 L 254.546875 359.84375 L 257.617188 345.28125 C 257.847656 344.128906 258.261719 343.046875 258.863281 342.039062 C 259.464844 341.03125 260.21875 340.152344 261.125 339.40625 C 262.007812 338.683594 262.988281 338.136719 264.070312 337.769531 C 265.148438 337.398438 266.257812 337.230469 267.398438 337.261719 L 287.265625 337.261719 L 292.050781 314.621094 L 281.238281 314.621094 L 279.445312 323.175781 L 262.285156 323.175781 L 263.714844 316.191406 C 263.953125 315.042969 264.371094 313.96875 264.976562 312.964844 C 265.582031 311.964844 266.339844 311.09375 267.242188 310.351562 C 268.140625 309.621094 269.136719 309.066406 270.234375 308.6875 C 271.328125 308.3125 272.457031 308.140625 273.613281 308.171875 L 302.515625 308.171875 C 303.542969 308.089844 304.535156 308.246094 305.488281 308.636719 C 306.441406 309.027344 307.253906 309.613281 307.933594 310.390625 C 308.535156 311.246094 308.917969 312.1875 309.082031 313.21875 C 309.246094 314.253906 309.171875 315.269531 308.867188 316.265625 L 304.824219 335.617188 C 304.59375 336.769531 304.175781 337.851562 303.574219 338.863281 C 302.972656 339.875 302.21875 340.757812 301.316406 341.511719 C 300.4375 342.242188 299.457031 342.796875 298.375 343.175781 C 297.296875 343.554688 296.1875 343.734375 295.042969 343.710938 L 275.15625 343.710938 Z M 273.078125 353.472656 " fill-opacity="1" fill-rule="nonzero"/></g><g clip-path="url(#263b14ba68)"><path fill="#000000" d="M 352.929688 351.808594 C 352.703125 352.964844 352.285156 354.046875 351.683594 355.058594 C 351.082031 356.070312 350.328125 356.953125 349.421875 357.703125 C 348.535156 358.421875 347.554688 358.96875 346.476562 359.335938 C 345.398438 359.707031 344.289062 359.875 343.148438 359.84375 L 314.167969 359.84375 C 313.140625 359.925781 312.148438 359.769531 311.195312 359.378906 C 310.242188 358.988281 309.429688 358.40625 308.753906 357.625 C 308.140625 356.773438 307.753906 355.828125 307.589844 354.789062 C 307.421875 353.75 307.5 352.730469 307.816406 351.730469 L 315.292969 316.265625 C 315.519531 315.113281 315.9375 314.03125 316.539062 313.023438 C 317.140625 312.015625 317.894531 311.136719 318.800781 310.390625 C 319.679688 309.652344 320.664062 309.09375 321.746094 308.710938 C 322.828125 308.328125 323.945312 308.148438 325.09375 308.171875 L 354.074219 308.171875 C 355.085938 308.101562 356.0625 308.261719 357 308.652344 C 357.941406 309.042969 358.742188 309.621094 359.410156 310.390625 C 360.023438 311.242188 360.410156 312.183594 360.574219 313.21875 C 360.742188 314.253906 360.664062 315.269531 360.347656 316.265625 Z M 332.832031 314.621094 L 324.617188 353.472656 L 335.386719 353.472656 L 343.605469 314.621094 Z M 332.832031 314.621094 " fill-opacity="1" fill-rule="nonzero"/></g><g clip-path="url(#1b1013ba0d)"><path fill="#000000" d="M 376.171875 353.472656 L 404.105469 353.472656 L 402.769531 359.84375 L 357.640625 359.84375 L 360.707031 345.28125 C 360.941406 344.128906 361.359375 343.050781 361.960938 342.042969 C 362.5625 341.035156 363.316406 340.15625 364.214844 339.40625 C 365.09375 338.667969 366.074219 338.109375 367.152344 337.726562 C 368.234375 337.347656 369.34375 337.164062 370.488281 337.183594 L 390.355469 337.183594 L 395.144531 314.621094 L 384.390625 314.621094 L 382.597656 323.175781 L 365.4375 323.175781 L 366.847656 316.191406 C 367.082031 315.042969 367.496094 313.96875 368.101562 312.96875 C 368.703125 311.964844 369.453125 311.09375 370.355469 310.351562 C 371.234375 309.636719 372.207031 309.089844 373.273438 308.714844 C 374.339844 308.339844 375.441406 308.160156 376.570312 308.171875 L 405.609375 308.171875 C 406.636719 308.089844 407.625 308.246094 408.578125 308.636719 C 409.53125 309.027344 410.347656 309.613281 411.023438 310.390625 C 411.632812 311.242188 412.019531 312.183594 412.183594 313.21875 C 412.347656 314.253906 412.273438 315.269531 411.960938 316.265625 L 407.917969 335.617188 C 407.683594 336.769531 407.269531 337.851562 406.667969 338.863281 C 406.0625 339.875 405.3125 340.757812 404.410156 341.511719 C 403.527344 342.242188 402.550781 342.796875 401.46875 343.175781 C 400.390625 343.554688 399.28125 343.734375 398.136719 343.710938 L 378.269531 343.710938 Z M 376.171875 353.472656 " fill-opacity="1" fill-rule="nonzero"/></g><g clip-path="url(#f8e631929f)"><path fill="#000000" d="M 435.050781 308.171875 L 428.910156 337.261719 L 439.664062 337.261719 L 445.800781 308.171875 L 462.960938 308.171875 L 452.074219 359.84375 L 434.914062 359.84375 L 438.347656 343.632812 L 418.519531 343.632812 C 417.492188 343.71875 416.503906 343.570312 415.550781 343.179688 C 414.597656 342.792969 413.78125 342.210938 413.101562 341.433594 C 412.492188 340.582031 412.105469 339.636719 411.9375 338.597656 C 411.773438 337.558594 411.851562 336.539062 412.167969 335.539062 L 417.851562 308.171875 Z M 435.050781 308.171875 " fill-opacity="1" fill-rule="nonzero"/></g></svg>